<?xml version="1.0" encoding="utf-8"?>
<!-- Generator: Adobe Illustrator 26.2.1, SVG Export Plug-In . SVG Version: 6.00 Build 0)  -->
<svg version="1.1" id="Vrstva_1" xmlns="http://www.w3.org/2000/svg" xmlns:xlink="http://www.w3.org/1999/xlink" x="0px" y="0px"
	 viewBox="0 0 2568.6 580.3" style="enable-background:new 0 0 2568.6 580.3;" xml:space="preserve">
<style type="text/css">
	.st0{fill:#FFFFFF;}
	.st1{fill:#FFFFFF;stroke:#FFFFFF;stroke-miterlimit:10;}
	.st2{fill:#258AEF;}
	.st3{fill:#2F72DD;}
</style>
<g id="Vrstva_2_00000171688831439235570240000014983549543392777868_">
	<g id="Vrstva_1_kopie_3">
		<path class="st0" d="M1177.8,438.9c-40.9,0-79.2-17.2-107.9-48.3s-44.5-72.9-44.5-117.5c0-91.1,68.4-165.2,152.4-165.2
			c84.7,0,153.6,74.1,153.6,165.2c0,44.3-15.9,86-44.9,117.3S1218.9,438.9,1177.8,438.9z M1177.8,169c-49.3,0-89.5,47-89.5,104.7
			c0,57.4,40.2,104.1,89.5,104.1c50.5,0,90.1-45.7,90.1-104.1C1267.8,215.9,1227.4,169,1177.8,169L1177.8,169z"/>
		<path class="st1" d="M1177.8,110.3c83.5,0,151.1,73.6,151.1,162.7c0,90.4-67.6,163.3-151.1,163.3c-82.9,0-149.9-72.3-149.9-163.3
			C1027.8,183.3,1094.8,110.3,1177.8,110.3 M1177.8,380.3c51.7,0,92.6-47.4,92.6-106.6s-40.9-107.2-92.6-107.2
			c-50.5,0-92,48-92,107.2S1127.2,380.3,1177.8,380.3 M1177.8,105.3c-41.5,0-80.5,17.5-109.7,49.3s-45.2,73.7-45.2,118.4
			c0,45.2,16,87.5,45.2,119.2s68.2,49.1,109.7,49.1c41.8,0,81-17.5,110.5-49.4s45.6-74,45.6-119c0-22.2-4.1-44.2-12.2-64.9
			c-7.7-19.7-19-37.8-33.3-53.3c-14-15.2-30.8-27.5-49.6-36.2C1219.6,109.9,1198.8,105.3,1177.8,105.3L1177.8,105.3z M1177.8,375.3
			c-48,0-87-45.6-87-101.6c0-56.4,39-102.2,87-102.2c48.3,0,87.6,45.9,87.6,102.2C1265.3,330.7,1226.9,375.3,1177.8,375.3z"/>
		<path class="st0" d="M1617.3,432c-14.4,0-22.9-9.3-22.9-25V253.7c0-53.9-19.8-84.8-54.3-84.8c-32,0-86.1,24-86.1,114.1v124
			c0,15.6-8.6,24.9-23,24.9h-17c-14.7,0-23.5-9.3-23.5-25V139.6c0-15.6,8.8-24.9,23.5-24.9h17c14.4,0,22.9,9.3,22.9,24.9V164
			c15.6-35.4,49.2-56.2,92.3-56.2c33.2,0,60.8,12.3,80.1,35.6c20.9,25.3,31.4,62.2,31.4,109.7v154c0,15.6-8.8,25-23.5,25L1617.3,432
			z"/>
		<path class="st1" d="M1546.3,110.3c63,0,109,44.9,109,142.8v154c0,14.3-7.9,22.5-21,22.5h-17c-13.1,0-20.4-8.1-20.4-22.5V253.7
			c0-64.2-26.7-87.3-56.8-87.3c-29.5,0-88.6,21.8-88.6,116.6v124c0,14.3-7.4,22.5-20.4,22.5h-17c-13.1,0-21-8.1-21-22.5V139.6
			c0-14.3,8-22.4,21-22.4h17c13.1,0,20.4,8.1,20.4,22.4v38.7C1464,134.7,1500.3,110.3,1546.3,110.3 M1546.3,105.3
			c-23.9,0-45.6,6.4-62.9,18.5c-11.1,7.8-20.3,17.9-27,29.7v-13.9c0-17.2-9.5-27.4-25.4-27.4h-17c-16,0-26,10.5-26,27.4v267.4
			c0,16.9,10,27.5,26,27.5h17c15.9,0,25.4-10.3,25.4-27.5V283c0-40.1,10.7-70.5,31.6-90.2c14.1-13.3,32.6-21,52-21.4
			c14.7,0,27,6.1,35.7,17.6c10.7,14.1,16.1,35.9,16.1,64.7v153.4c0,17.2,9.5,27.5,25.4,27.5h17c16.1,0,26-10.5,26-27.5v-154
			c0-48.1-10.8-85.6-32-111.3C1608.6,117.9,1580.3,105.3,1546.3,105.3L1546.3,105.3z"/>
		<path class="st0" d="M1876.8,438.9c-48.5,0-89.9-16.7-119.9-48.4c-28.3-29.9-43.8-71.1-43.8-116.2s15.7-86.9,44.1-117.8
			c28.9-31.4,68.6-48.7,111.7-48.7c37.6,0,72.3,13,97.9,36.5c28.5,26.2,45.6,65.1,49.3,112.3c0.9,7.9-0.8,14.5-4.8,19
			s-10,6.8-17.6,6.8h-217.9c-0.2,25.3,8.8,48.5,25.4,65.6c18.6,19.2,45.6,29.7,76.1,29.7c28,0,52.1-8.2,75.7-25.7
			c5.4-3.8,10.3-5.6,15.1-5.6c6.1,0,11.7,3,17.2,9l0.1,0.1l4,5c10.6,12.3,9,26.9-4.2,38.9C1956,425.7,1919.5,438.9,1876.8,438.9z
			 M1952.5,230c-15-51.4-53-62.3-82.4-62.3c-24.6,0-68.3,8.2-87.9,62.3H1952.5z"/>
		<path class="st1" d="M1868.9,110.3c71.6,0,136.9,46.8,144.8,146.5c1.7,15-6.2,23.1-19.9,23.1h-220.3c-1.7,58,42,100.4,103.9,100.4
			c27.8,0,52.8-8.1,77.2-26.2c4.8-3.3,9.3-5.1,13.6-5.1c5.3,0,10.3,2.7,15.4,8.2l4,5c9.1,10.6,9.1,23.7-4,35.5
			c-32.9,29.3-71,38.6-106.8,38.6c-99.9,0-161.3-72.9-161.3-162.1C1715.5,183.3,1780.3,110.3,1868.9,110.3 M1778.6,232.5h177.2
			c-14.8-55.5-54.5-67.3-85.8-67.3C1837.1,165.2,1796.2,179.5,1778.6,232.5 M1868.9,105.3c-43.9,0-84.2,17.6-113.6,49.5
			c-28.9,31.4-44.8,73.8-44.8,119.5s15.8,87.6,44.5,117.9c14.8,15.6,32.6,27.8,52.5,36c21,8.7,44.3,13.2,69.3,13.2
			c43.3,0,80.3-13.4,110.1-39.9c7.3-6.6,11.3-13.9,11.9-21.6c0.6-7.3-2-14.5-7.4-20.9l-3.9-4.9l-0.1-0.1l-0.1-0.1
			c-6-6.6-12.3-9.8-19.1-9.8c-5.3,0-10.7,2-16.4,6h-0.1l-0.1,0c-23.2,17.2-46.8,25.2-74.3,25.2c-29.8,0-56.1-10.3-74.3-29
			c-15.6-16.1-24.2-37.7-24.7-61.4h215.4c8.3,0,15-2.6,19.4-7.6s6.4-12.3,5.4-21c-3.8-47.8-21.2-87.2-50.2-113.9
			c-13.4-12.3-29.1-21.8-46.2-28C1905.2,108.3,1887.1,105.2,1868.9,105.3L1868.9,105.3z M1785.7,227.5
			c19.6-49.7,60.8-57.3,84.3-57.3c28,0,63.8,10.1,79.1,57.3H1785.7z"/>
		<path class="st0" d="M764.9,299.2v-42.4c0-7.9,4-12.2,12-12.2h168c7.4,0,12,4.3,12,12.2v42.4c0,8-4.6,12.8-12,12.8h-168
			C768.9,312,764.9,307.1,764.9,299.2z"/>
		<path class="st0" d="M2078.3,523.7c-13,0-18.6-9.7-12.4-21.8L2266,67.8c3.9-9.1,10.7-13.3,20.3-13.3h32.7
			c13.5,0,18.6,9.1,12.4,21.8l-200.1,433.5c-4.5,9.7-11.3,13.9-20.9,13.9H2078.3z"/>
		<path class="st2" d="M341.1,36.9c0-21,14-36.9,39.4-36.9c25,0,39.4,15.9,39.4,36.9c0,20.5-15.3,36.4-39.4,36.4
			S341.1,57.4,341.1,36.9z"/>
		<path class="st2" d="M470,408.4v-3.6c0-14.5,3.6-23.9,13-36.3l127.1-169.5H497.4c-17.6,0-27-9.5-27-29.1v-14.5
			c0-18.8,9.6-29.1,27-29.1h190.2c17.5,0,27.1,10.3,27.1,29.1v4.2c0,14.5-3.8,24.5-13,36.3L575.2,364.8h111.1
			c17.5,0,27.6,10.3,27.6,29.1v14.5c-0.6,18.8-10.1,29.1-27.6,29.1H497.1C479.6,437.4,470,427.1,470,408.4z"/>
		<path class="st2" d="M312.2,580.3c49,0,107.7-22.4,107.7-117.5V155.3c0-18.8-9.6-29.1-27.1-29.1h-22.7
			c-17.5,0-27.1,10.3-27.1,29.1V475c0,24.3-8.4,31.5-19.8,33.9c-16,3.5-31-7.8-38.5-18.1c-4.5-6.2-13-7.9-19.6-4L230.4,507
			c-6.9,4.2-9.6,12.9-6.2,20.2C239.7,560.8,274.5,580.3,312.2,580.3z"/>
		<path class="st3" d="M194.6,371.4L0,252.4v64c0,5.2,2.7,10.1,7.2,12.8l171.7,105c7.1,4.3,16.3,2.1,20.6-5c1.4-2.4,2.2-5.1,2.2-7.8
			v-37.2C201.7,379,199,374.1,194.6,371.4z"/>
		<path class="st2" d="M194.6,196.9L0,315.8v-64c0-5.2,2.7-10.1,7.2-12.8l171.7-105c7.1-4.3,16.3-2.1,20.6,5
			c1.4,2.4,2.2,5.1,2.2,7.8V184C201.7,189.3,199,194.1,194.6,196.9z"/>
		<path class="st3" d="M2374.1,196.9l194.6,119v-64c0-5.2-2.7-10.1-7.2-12.8l-171.7-105c-7.1-4.3-16.3-2.1-20.6,5
			c-1.4,2.4-2.2,5.1-2.2,7.8v37.2C2366.9,189.3,2369.6,194.2,2374.1,196.9z"/>
		<path class="st2" d="M2374.1,371.4l194.6-119v64c0,5.2-2.7,10.1-7.2,12.8l-171.7,105c-7.1,4.3-16.3,2.1-20.6-5
			c-1.4-2.4-2.2-5.1-2.2-7.8v-37.2C2366.9,378.9,2369.6,374.1,2374.1,371.4z"/>
	</g>
</g>
</svg>
