<svg xmlns="http://www.w3.org/2000/svg" viewBox="0 0 2568.65 580.33">
    <defs>
        <style>.cls-1{fill:#242c38;}.cls-2{fill:#258aef;}.cls-3{fill:#2f72dd;}</style>
    </defs>
    <g id="Vrstva_2" data-name="Vrstva 2">
        <g id="Vrstva_1_kopie_3" data-name="Vrstva 1 kopie 3">
            <path class="cls-1"
                  d="M1177.76,438.88c-40.88,0-79.19-17.16-107.89-48.34s-44.53-72.91-44.53-117.48c0-91.1,68.38-165.21,152.42-165.21,84.68,0,153.56,74.11,153.56,165.21,0,44.33-15.94,86-44.89,117.26S1218.86,438.88,1177.76,438.88Zm0-269.92c-49.35,0-89.5,47-89.5,104.72,0,57.4,40.15,104.1,89.5,104.1,50.51,0,90.07-45.73,90.07-104.1C1267.83,215.94,1227.43,169,1177.76,169Z"/>
            <path class="cls-1"
                  d="M1177.76,110.35c83.48,0,151.06,73.56,151.06,162.71,0,90.39-67.58,163.32-151.06,163.32-82.91,0-149.92-72.31-149.92-163.32,0-89.77,67-162.71,149.92-162.71m0,269.93c51.68,0,92.57-47.38,92.57-106.6s-40.89-107.22-92.57-107.22c-50.54,0-92,48-92,107.22s41.46,106.6,92,106.6m0-274.93c-41.49,0-80.46,17.51-109.73,49.31s-45.19,73.7-45.19,118.4c0,45.2,16.05,87.52,45.19,119.18s68.15,49.14,109.73,49.14c41.8,0,81-17.53,110.51-49.37s45.55-74,45.55-118.95a176.56,176.56,0,0,0-12.21-64.86,169.47,169.47,0,0,0-33.34-53.32,156,156,0,0,0-49.6-36.18,145.07,145.07,0,0,0-60.91-13.35Zm0,269.93c-48,0-87-45.58-87-101.6,0-56.37,39-102.22,87-102.22,48.29,0,87.57,45.85,87.57,102.22,0,57-38.46,101.6-87.57,101.6Z"/>
            <path class="cls-1"
                  d="M1617.3,432c-14.36,0-22.94-9.33-22.94-24.95V253.73c0-53.87-19.79-84.77-54.29-84.77-32,0-86.09,24-86.09,114.07V407.08C1454,422.7,1445.4,432,1431,432h-17c-14.72,0-23.51-9.33-23.51-24.95V139.65c0-15.61,8.79-24.94,23.51-24.94h17c14.36,0,22.94,9.33,22.94,24.94V164c15.64-35.45,49.21-56.17,92.34-56.17,33.16,0,60.85,12.31,80.08,35.59,20.87,25.26,31.45,62.16,31.45,109.67v154c0,15.62-8.79,24.95-23.51,24.95Z"/>
            <path class="cls-1"
                  d="M1546.32,110.35c63,0,109,44.89,109,142.76v154c0,14.34-7.95,22.45-21,22.45h-17c-13.07,0-20.45-8.11-20.45-22.45V253.73c0-64.21-26.69-87.27-56.79-87.27-29.53,0-88.59,21.82-88.59,116.57V407.08c0,14.34-7.38,22.45-20.44,22.45h-17c-13.06,0-21-8.11-21-22.45V139.65c0-14.34,8-22.44,21-22.44h17c13.06,0,20.44,8.1,20.44,22.44V178.3c12.49-43.63,48.84-68,94.84-68m0-5c-23.9,0-45.63,6.41-62.86,18.52a92.41,92.41,0,0,0-27,29.71V139.65c0-17.18-9.51-27.44-25.44-27.44h-17c-16,0-26,10.52-26,27.44V407.08c0,16.93,10,27.45,26,27.45h17c15.93,0,25.44-10.26,25.44-27.45V283c0-40.15,10.65-70.49,31.64-90.17a78.1,78.1,0,0,1,52-21.4c14.65,0,27,6.08,35.7,17.57,10.68,14.12,16.09,35.89,16.09,64.7V407.08c0,17.19,9.51,27.45,25.45,27.45h17c16.05,0,26-10.52,26-27.45v-154c0-48.11-10.77-85.55-32-111.27-19.73-23.87-48.08-36.49-82-36.49Z"/>
            <path class="cls-1"
                  d="M1876.83,438.88c-48.48,0-89.95-16.73-119.94-48.39-28.27-29.85-43.84-71.11-43.84-116.19s15.66-86.9,44.1-117.79c28.89-31.38,68.56-48.66,111.73-48.66,37.57,0,72.35,13,97.95,36.51,28.52,26.23,45.59,65.06,49.35,112.29.9,7.87-.76,14.47-4.81,19s-10,6.75-17.55,6.75H1775.93c-.17,25.32,8.8,48.55,25.4,65.64,18.61,19.17,45.63,29.73,76.07,29.73,28,0,52.07-8.16,75.74-25.69,5.41-3.75,10.32-5.56,15.07-5.56,6.08,0,11.72,3,17.23,9l.11.13,4,5c10.58,12.34,9,26.92-4.25,38.94C1956,425.67,1919.47,438.88,1876.83,438.88ZM1952.47,230c-15-51.41-53-62.33-82.45-62.33-24.63,0-68.35,8.2-87.92,62.33Z"/>
            <path class="cls-1"
                  d="M1868.88,110.35c71.55,0,136.86,46.76,144.81,146.5,1.71,15-6.24,23.06-19.87,23.06H1773.47c-1.7,58,42,100.37,103.93,100.37,27.83,0,52.81-8.11,77.23-26.18,4.82-3.34,9.29-5.07,13.58-5.07,5.32,0,10.35,2.66,15.38,8.18l4,5c9.09,10.6,9.09,23.69-4,35.53-32.93,29.3-71,38.65-106.76,38.65-99.95,0-161.28-72.93-161.28-162.08,0-91,64.74-164,153.33-164m-90.29,122.19h177.18c-14.77-55.48-54.52-67.33-85.75-67.33-32.94,0-73.83,14.34-91.43,67.33m90.29-127.19c-43.87,0-84.2,17.57-113.57,49.46-28.86,31.36-44.76,73.8-44.76,119.49s15.81,87.6,44.53,117.91a152.11,152.11,0,0,0,52.47,36c21,8.74,44.34,13.17,69.28,13.17,43.28,0,80.31-13.43,110.09-39.91,7.31-6.63,11.32-13.88,11.95-21.56.59-7.27-2-14.49-7.44-20.89l-3.93-4.92-.1-.13-.11-.12c-6-6.61-12.26-9.82-19.08-9.82-5.28,0-10.65,2-16.43,6l-.06,0-.06.05c-23.23,17.19-46.82,25.2-74.26,25.2-29.76,0-56.14-10.29-74.28-29-15.59-16.06-24.25-37.71-24.68-61.4h215.38c8.27,0,15-2.62,19.41-7.59s6.41-12.31,5.44-20.95c-3.83-47.83-21.17-87.2-50.15-113.85a137.18,137.18,0,0,0-46.23-28,155.62,155.62,0,0,0-53.41-9.17Zm-83.16,122.19c19.63-49.69,60.85-57.33,84.3-57.33,28,0,63.83,10.15,79.07,57.33Z"/>
            <path class="cls-1"
                  d="M764.87,299.16V256.75c0-7.95,4-12.23,12-12.23h168c7.4,0,12,4.28,12,12.23v42.41c0,7.95-4.56,12.84-12,12.84h-168C768.86,312,764.87,307.11,764.87,299.16Z"/>
            <path class="cls-1"
                  d="M2078.31,523.74c-13,0-18.6-9.69-12.4-21.8L2266,67.82c3.94-9.08,10.71-13.32,20.29-13.32H2319c13.53,0,18.6,9.08,12.4,21.8L2131.3,509.81c-4.51,9.69-11.27,13.93-20.86,13.93Z"/>
            <path class="cls-2"
                  d="M341.1,36.88c0-21,14-36.88,39.42-36.88,25,0,39.42,15.93,39.42,36.88,0,20.48-15.26,36.42-39.42,36.42S341.1,57.36,341.1,36.88Z"/>
            <path class="cls-2"
                  d="M470.05,408.38v-3.63c0-14.53,3.63-23.86,13-36.33L610.14,198.89H497.43c-17.65,0-27.05-9.47-27.05-29.07V155.29c0-18.77,9.58-29.06,27.05-29.06H687.67c17.47,0,27.06,10.29,27.06,29.06v4.24c0,14.53-3.77,24.5-13,36.33L575.19,364.79H686.25c17.48,0,27.62,10.29,27.62,29.06v14.53c-.56,18.77-10.14,29.06-27.62,29.06H497.11C479.63,437.44,470.05,427.15,470.05,408.38Z"/>
            <path class="cls-2"
                  d="M312.23,580.33c49,0,107.67-22.4,107.67-117.46V155.29c0-18.77-9.58-29.06-27.06-29.06H370.15c-17.48,0-27.06,10.29-27.06,29.06V475c0,24.27-8.43,31.49-19.76,33.94-16,3.45-31-7.8-38.51-18.14a14.9,14.9,0,0,0-19.56-4L230.41,507a15.82,15.82,0,0,0-6.19,20.19C239.68,560.79,274.55,580.33,312.23,580.33Z"/>
            <path class="cls-3"
                  d="M194.56,371.36,0,252.41v64a15,15,0,0,0,7.18,12.8l171.73,105a15,15,0,0,0,22.82-12.8v-37.2A15,15,0,0,0,194.56,371.36Z"/>
            <path class="cls-2"
                  d="M194.56,196.88,0,315.83v-64a15,15,0,0,1,7.18-12.79l171.73-105a15,15,0,0,1,22.82,12.8v37.2A15,15,0,0,1,194.56,196.88Z"/>
            <path class="cls-3"
                  d="M2374.1,196.88l194.55,119v-64a15,15,0,0,0-7.17-12.79l-171.73-105a15,15,0,0,0-22.83,12.8v37.2A15,15,0,0,0,2374.1,196.88Z"/>
            <path class="cls-2"
                  d="M2374.1,371.36l194.55-119v64a15,15,0,0,1-7.17,12.8l-171.73,105a15,15,0,0,1-22.83-12.8v-37.2A15,15,0,0,1,2374.1,371.36Z"/>
        </g>
    </g>
</svg>
