<?xml version="1.0" encoding="utf-8"?>
<!-- Generator: Adobe Illustrator 27.4.1, SVG Export Plug-In . SVG Version: 6.00 Build 0)  -->
<svg version="1.1" id="Vrstva_1" xmlns="http://www.w3.org/2000/svg" xmlns:xlink="http://www.w3.org/1999/xlink" x="0px" y="0px"
	 viewBox="0 0 2630 625" style="enable-background:new 0 0 2630 625;" xml:space="preserve">
<style type="text/css">
	.st0{fill:#FFFFFF;}
	.st1{fill:#258AEF;}
	.st2{fill:#2F72DD;}
</style>
<path class="st0" d="M2048,550.6c-13,0-18.6-9.7-12.4-21.8l200.1-434.1c3.9-9.1,10.7-13.3,20.3-13.3h39.7c13.5,0,18.6,9.1,12.4,21.8
	L2108,536.7c-4.5,9.7-11.3,13.9-20.9,13.9L2048,550.6L2048,550.6z"/>
<g>
	<path class="st1" d="M393.4,181.6c0-16.9,7.8-25.3,23.5-25.3H441c15.7,0,23.5,8.4,23.5,25.3V471c0,24.9-4.4,44.9-13.2,60.2
		c-8.8,15.2-19.1,27.1-31.1,35.5s-24,14-36.1,16.9c-12.1,2.8-21.8,4.2-28.9,4.2h-8.4c-15.3,0-23-8.4-23-25.3v-15.6
		c0-9.6,2.3-15.9,7-19c4.7-3,10-4.9,16-5.7c4.9-0.4,10-1.4,15.4-3s10.5-4.3,15.1-8.1c4.7-3.8,8.5-9.3,11.5-16.5s4.5-16.7,4.5-28.3
		V181.6H393.4z M416.9,103.9c-15.7,0-23.5-8.2-23.5-24.7v-18c0-16.9,7.8-25.3,23.5-25.3h24.7c15.3,0,23,8.4,23,25.3v18.1
		c0,16.5-7.7,24.7-23,24.7L416.9,103.9L416.9,103.9z"/>
	<path class="st1" d="M511.5,438.7c0-6.4,0.7-11.5,2.2-15.3s4.1-8.1,7.8-12.9l142.3-187.2H540.7c-15.7,0-23.5-8.4-23.5-25.3v-14.4
		c0-16.9,7.8-25.3,23.5-25.3h196.1c15.7,0,23.5,6.8,23.5,20.5v6c0,6.4-0.8,11.5-2.2,15.3c-1.5,3.8-4.1,8.1-7.8,12.9L607.4,400.8
		l133.3-0.6c15.7,0,23.5,8.4,23.5,25.3v14.4c0,16.9-7.8,25.3-23.5,25.3H535.1c-15.7,0-23.5-6.8-23.5-20.5L511.5,438.7L511.5,438.7z"
		/>
</g>
<path class="st2" d="M36.6,348.6c0,6,3.1,11.6,8.3,14.8L243.7,485c8.2,5,18.9,2.4,23.8-5.8c1.6-2.8,2.5-5.9,2.5-9v-43.1
	c0-6-3.1-11.7-8.2-14.8L97.6,311.9"/>
<path class="st1" d="M261.9,211.2L36.6,348.9v-74.1c0-6,3.1-11.7,8.3-14.8l198.8-121.5c8.2-5,18.9-2.4,23.8,5.8
	c1.6,2.8,2.5,5.9,2.5,9v43.1C270.1,202.4,267,208.1,261.9,211.2z"/>
<path class="st2" d="M2598.1,275.6c0-6-3.1-11.6-8.3-14.8L2391,139.3c-8.2-5-18.9-2.4-23.8,5.8c-1.6,2.8-2.5,5.9-2.5,9v43.1
	c0,6,3.1,11.7,8.2,14.8L2537,312.4"/>
<path class="st1" d="M2372.8,413l225.3-137.8v74.1c0,6-3.1,11.7-8.3,14.8L2391,485.7c-8.2,5-18.9,2.4-23.8-5.8
	c-1.6-2.8-2.5-5.9-2.5-9v-43.1C2364.6,421.8,2367.7,416.2,2372.8,413z"/>
<path class="st0" d="M1145.2,481.6c-40.9,0-79.2-17.2-107.9-48.3c-28.7-31.2-44.5-72.9-44.5-117.5c0-91.1,68.4-165.2,152.4-165.2
	c84.7,0,153.6,74.1,153.6,165.2c0,44.3-15.9,86-44.9,117.3S1186.3,481.6,1145.2,481.6z M1145.2,211.6c-49.3,0-89.5,47-89.5,104.7
	c0,57.4,40.2,104.1,89.5,104.1c50.5,0,90.1-45.7,90.1-104.1C1235.3,258.6,1194.9,211.7,1145.2,211.6L1145.2,211.6z"/>
<path class="st0" d="M1145.2,153c83.5,0,151.1,73.6,151.1,162.7c0,90.4-67.6,163.3-151.1,163.3c-82.9,0-149.9-72.3-149.9-163.3
	C995.3,226,1062.3,153,1145.2,153 M1145.2,423c51.7,0,92.6-47.4,92.6-106.6s-40.9-107.2-92.6-107.2c-50.5,0-92,48-92,107.2
	S1094.6,423,1145.2,423 M1145.2,148c-41.5,0-80.5,17.5-109.7,49.3c-29.3,31.8-45.2,73.7-45.2,118.4c0,45.2,16,87.5,45.2,119.2
	c29.1,31.7,68.2,49.1,109.7,49.1c41.8,0,81-17.5,110.5-49.4s45.6-74,45.6-119c0-22.2-4.1-44.2-12.2-64.9
	c-7.7-19.7-19-37.8-33.3-53.3c-14-15.2-30.8-27.5-49.6-36.2C1187,152.6,1166.2,148,1145.2,148L1145.2,148z M1145.2,418
	c-48,0-87-45.6-87-101.6c0-56.4,39-102.2,87-102.2c48.3,0,87.6,45.8,87.6,102.2C1232.8,373.4,1194.3,418,1145.2,418z"/>
<path class="st0" d="M1584.7,474.7c-14.4,0-22.9-9.3-22.9-25V296.4c0-53.9-19.8-84.8-54.3-84.8c-32,0-86.1,24-86.1,114.1v124
	c0,15.6-8.6,24.9-23,24.9h-17c-14.7,0-23.5-9.3-23.5-25V182.3c0-15.6,8.8-24.9,23.5-24.9h17c14.4,0,22.9,9.3,22.9,24.9v24.4
	c15.6-35.4,49.2-56.2,92.3-56.2c33.2,0,60.8,12.3,80.1,35.6c20.9,25.3,31.4,62.2,31.4,109.7v154c0,15.6-8.8,25-23.5,25L1584.7,474.7
	z"/>
<path class="st0" d="M1513.7,153c63,0,109,44.9,109,142.8v154c0,14.3-7.9,22.5-21,22.5h-17c-13.1,0-20.4-8.1-20.4-22.5V296.4
	c0-64.2-26.7-87.3-56.8-87.3c-29.5,0-88.6,21.8-88.6,116.6v124c0,14.3-7.4,22.5-20.4,22.5h-17c-13.1,0-21-8.1-21-22.5V182.3
	c0-14.3,8-22.4,21-22.4h17c13.1,0,20.4,8.1,20.4,22.4V221C1431.4,177.3,1467.8,153,1513.7,153 M1513.8,148
	c-23.9,0-45.6,6.4-62.9,18.5c-11.1,7.8-20.3,17.9-27,29.7v-13.9c0-17.2-9.5-27.4-25.4-27.4h-17c-16,0-26,10.5-26,27.4v267.4
	c0,16.9,10,27.5,26,27.5h17c15.9,0,25.4-10.3,25.4-27.5v-124c0-40.1,10.7-70.5,31.6-90.2c14.1-13.3,32.6-21,52-21.4
	c14.7,0,27,6.1,35.7,17.6c10.7,14.1,16.1,35.9,16.1,64.7v153.4c0,17.2,9.5,27.5,25.4,27.5h17c16.1,0,26-10.5,26-27.5v-154
	c0-48.1-10.8-85.5-32-111.3C1576,160.6,1547.7,148,1513.8,148L1513.8,148z"/>
<path class="st0" d="M1844.3,481.6c-48.5,0-89.9-16.7-119.9-48.4c-28.3-29.9-43.8-71.1-43.8-116.2s15.7-86.9,44.1-117.8
	c28.9-31.4,68.6-48.7,111.7-48.7c37.6,0,72.3,13,97.9,36.5c28.5,26.2,45.6,65.1,49.3,112.3c0.9,7.9-0.8,14.5-4.8,19
	s-10,6.8-17.6,6.8h-217.9c-0.2,25.3,8.8,48.5,25.4,65.6c18.6,19.2,45.6,29.7,76.1,29.7c28,0,52.1-8.2,75.7-25.7
	c5.4-3.8,10.3-5.6,15.1-5.6c6.1,0,11.7,3,17.2,9l0.1,0.1l4,5c10.6,12.3,9,26.9-4.2,38.9C1923.4,468.3,1886.9,481.6,1844.3,481.6z
	 M1919.9,272.7c-15-51.4-53-62.3-82.4-62.3c-24.6,0-68.3,8.2-87.9,62.3H1919.9z"/>
<path class="st0" d="M1836.3,153c71.6,0,136.9,46.8,144.8,146.5c1.7,15-6.2,23.1-19.9,23.1h-220.3c-1.7,58,42,100.4,103.9,100.4
	c27.8,0,52.8-8.1,77.2-26.2c4.8-3.3,9.3-5.1,13.6-5.1c5.3,0,10.3,2.7,15.4,8.2l4,5c9.1,10.6,9.1,23.7-4,35.5
	c-32.9,29.3-71,38.6-106.8,38.6c-99.9,0-161.3-72.9-161.3-162.1C1683,226,1747.7,153,1836.3,153 M1746,275.2h177.2
	c-14.8-55.5-54.5-67.3-85.8-67.3C1804.5,207.8,1763.6,222.2,1746,275.2 M1836.3,148c-43.9,0-84.2,17.6-113.6,49.5
	c-28.9,31.4-44.8,73.8-44.8,119.5s15.8,87.6,44.5,117.9c14.8,15.6,32.6,27.8,52.5,36c21,8.7,44.3,13.2,69.3,13.2
	c43.3,0,80.3-13.4,110.1-39.9c7.3-6.6,11.3-13.9,11.9-21.6c0.6-7.3-2-14.5-7.4-20.9l-3.9-4.9l-0.1-0.1l-0.1-0.1
	c-6-6.6-12.3-9.8-19.1-9.8c-5.3,0-10.7,2-16.4,6h-0.1h-0.1c-23.2,17.2-46.8,25.2-74.3,25.2c-29.8,0-56.1-10.3-74.3-29
	c-15.6-16.1-24.2-37.7-24.7-61.4h215.4c8.3,0,15-2.6,19.4-7.6s6.4-12.3,5.4-21c-3.8-47.8-21.2-87.2-50.2-113.8
	c-13.4-12.3-29.1-21.8-46.2-28C1872.6,151,1854.5,147.9,1836.3,148L1836.3,148z M1753.1,270.2c19.6-49.7,60.8-57.3,84.3-57.3
	c28,0,63.8,10.1,79.1,57.3H1753.1z"/>
</svg>
