<?xml version="1.0" encoding="utf-8"?>
<!-- Generator: Adobe Illustrator 27.4.1, SVG Export Plug-In . SVG Version: 6.00 Build 0)  -->
<svg version="1.1" id="Vrstva_2_00000015328617740414334150000005347733941401986187_"
	 xmlns="http://www.w3.org/2000/svg" xmlns:xlink="http://www.w3.org/1999/xlink" x="0px" y="0px" viewBox="0 0 841.3 580.3"
	 style="enable-background:new 0 0 841.3 580.3;" xml:space="preserve">
<style type="text/css">
	.st0{fill:#258AEF;}
	.st1{fill:#FFFFFF;}
</style>
<g>
	<path class="st0" d="M138.2,151.6c0-16.9,7.8-25.3,23.5-25.3h24.1c15.7,0,23.5,8.4,23.5,25.3V441c0,24.9-4.4,44.9-13.2,60.2
		c-8.8,15.2-19.1,27.1-31.1,35.5s-24,14-36.1,16.9c-12.1,2.8-21.8,4.2-28.9,4.2h-8.4c-15.3,0-23-8.4-23-25.3v-15.6
		c0-9.6,2.3-15.9,7-19c4.7-3,10-4.9,16-5.7c4.9-0.4,10-1.4,15.4-3s10.5-4.3,15.1-8.1c4.7-3.8,8.5-9.3,11.5-16.5s4.5-16.7,4.5-28.3
		V151.6H138.2z M161.7,73.9c-15.7,0-23.5-8.2-23.5-24.7v-18c0-16.9,7.8-25.3,23.5-25.3h24.7c15.3,0,23,8.4,23,25.3v18.1
		c0,16.5-7.7,24.7-23,24.7L161.7,73.9L161.7,73.9z"/>
	<path class="st0" d="M256.3,408.7c0-6.4,0.7-11.5,2.2-15.3s4.1-8.1,7.8-12.9l142.3-187.2H285.4c-15.7,0-23.5-8.4-23.5-25.3v-14.4
		c0-16.9,7.8-25.3,23.5-25.3h196.1c15.7,0,23.5,6.8,23.5,20.5v6c0,6.4-0.8,11.5-2.2,15.3c-1.5,3.8-4.1,8.1-7.8,12.9L352.1,370.8
		l133.3-0.6c15.7,0,23.5,8.4,23.5,25.3v14.4c0,16.9-7.8,25.3-23.5,25.3H279.8c-15.7,0-23.5-6.8-23.5-20.5V408.7z"/>
</g>
<path class="st1" d="M546.7,524.1c-13,0-18.6-9.7-12.4-21.8L734.4,68.2c3.9-9.1,10.7-13.3,20.3-13.3h39.7c13.5,0,18.6,9.1,12.4,21.8
	L606.7,510.2c-4.5,9.7-11.3,13.9-20.9,13.9L546.7,524.1L546.7,524.1z"/>
</svg>
