<?xml version="1.0" standalone="no"?>
<!DOCTYPE svg PUBLIC "-//W3C//DTD SVG 1.1//EN" "http://www.w3.org/Graphics/SVG/1.1/DTD/svg11.dtd" >
<svg xmlns="http://www.w3.org/2000/svg">
    <metadata>Created by Icons8</metadata>
    <defs>
        <font id="jz-one_admin" horiz-adv-x="1024">
            <font-face font-family="jz-one_admin"
                       units-per-em="1024" ascent="896"
                       descent="128"
                       font-weight="500"/>
            <missing-glyph horiz-adv-x="0"/>
            <glyph glyph-name="expand"
                   unicode="&#xF100;"
                   horiz-adv-x="1024"
                   d="M159.6666666666667 768.3333333333334A32.0032 32.0032 0 0 1 128 731.9166677333333L128 544A32.0032 32.0032 0 1 1 192 544L192 658.7499946666667L393.3749973333334 457.3749973333333A32.0032 32.0032 0 1 1 438.6250026666667 502.6250026666667L237.2500053333333 704L352 704A32.0032 32.0032 0 1 1 352 768L164.0416661333333 768A32.0032 32.0032 0 0 1 159.6666666666667 768.3333333333334zM863.3749973333333 768.2916672A32.0032 32.0032 0 0 1 859.916672 768L672 768A32.0032 32.0032 0 1 1 672 704L786.7499946666667 704L585.3749973333333 502.6250026666667A32.0032 32.0032 0 1 1 630.6250026666667 457.3749973333333L832 658.7499946666667L832 544A32.0032 32.0032 0 1 1 896 544L896 731.9583338666666A32.0032 32.0032 0 0 1 863.3749973333333 768.2916672zM607.6666666666666 320.3333333333334A32.0032 32.0032 0 0 1 585.3749973333333 265.3749973333334L786.7499946666667 64L672 64A32.0032 32.0032 0 1 1 672 0L859.9583359999999 0A32.0032 32.0032 0 0 1 896 36.0833280000001L896 224A32.0032 32.0032 0 1 1 832 224L832 109.2500053333333L630.6250026666667 310.6250026666667A32.0032 32.0032 0 0 1 607.6666666666666 320.3333333333334zM415.3749973333334 320.2916693333334A32.0032 32.0032 0 0 1 393.3749973333334 310.6250026666667L192 109.2500053333333L192 224A32.0032 32.0032 0 1 1 128 224L128 36.0416640000001A32.0032 32.0032 0 0 1 164.0833322666667 0L352 0A32.0032 32.0032 0 1 1 352 64L237.2500053333333 64L438.6250026666667 265.3749973333334A32.0032 32.0032 0 0 1 415.3749973333334 320.2916693333334z"/>
            <glyph glyph-name="alarm"
                   unicode="&#xF101;"
                   horiz-adv-x="1024"
                   d="M73.9583338666667 810.9583338666666A32.0032 32.0032 0 0 1 54.6666666666667 753.6666666666667L161.3333333333333 668.3333333333334A32.0156202666667 32.0156202666667 0 1 1 201.3333333333333 718.3333333333334L94.6666666666667 803.6666666666666A32.0032 32.0032 0 0 1 73.9583338666667 810.9583338666666zM949.083328 810.9583338666666A32.0032 32.0032 0 0 1 929.3333333333331 803.6666666666666L822.6666666666666 718.3333333333334A32.0156202666667 32.0156202666667 0 1 1 862.6666666666666 668.3333333333334L969.3333333333331 753.6666666666667A32.0032 32.0032 0 0 1 949.083328 810.9583338666666zM512 810.6666666666666C335.6453973333334 810.6666666666666 192 667.0212693333333 192 490.6666666666667L192 316.0416640000001L133.0833322666667 181.3749973333334C118.1527658666667 147.2258346666668 144.6814848 106.6666666666667 181.9583338666667 106.6666666666667L384 106.6666666666667C384 36.3548800000001 441.6882133333334 -21.3333333333333 512 -21.3333333333333C582.3117866666666 -21.3333333333333 640 36.3548800000001 640 106.6666666666667L842.041664 106.6666666666667C879.3185066666666 106.6666666666667 905.8472319999998 147.2258346666668 890.916672 181.3749973333334L832 316.0416640000001L832 490.6666666666667C832 667.0212693333333 688.3546026666666 810.6666666666666 512 810.6666666666666zM512 746.6666666666667C653.768064 746.6666666666667 768 632.4347306666666 768 490.6666666666667L768 309.3333333333334A32.0032 32.0032 0 0 1 770.6666666666666 296.5000106666667L825.7499946666667 170.6666666666668L512 170.6666666666668L198.2500010666667 170.6666666666668L253.3333333333333 296.5000106666667A32.0032 32.0032 0 0 1 256 309.3333333333334L256 490.6666666666667C256 632.4347306666666 370.231936 746.6666666666667 512 746.6666666666667zM32 554.6666666666667A32.0032 32.0032 0 1 1 32 490.6666666666667L117.3333333333333 490.6666666666667A32.0032 32.0032 0 1 1 117.3333333333333 554.6666666666667L32 554.6666666666667zM906.6666666666666 554.6666666666667A32.0032 32.0032 0 1 1 906.6666666666666 490.6666666666667L992 490.6666666666667A32.0032 32.0032 0 1 1 992 554.6666666666667L906.6666666666666 554.6666666666667zM448 106.6666666666667L512 106.6666666666667L576 106.6666666666667C576 70.9517866666668 547.71488 42.6666666666667 512 42.6666666666667C476.28512 42.6666666666667 448 70.9517866666668 448 106.6666666666667z"/>
            <glyph glyph-name="notification"
                   unicode="&#xF102;"
                   horiz-adv-x="1024"
                   d="M496.5833386666666 810.2916672C324.135808 802.1692245333334 192 654.0076586666667 192 482.5416746666667L192 327.4999893333334L135.4583338666667 213.7499946666667A32.0032 32.0032 0 0 1 135.1666666666667 213.124992C112.4198485333333 164.751616 149.2417621333334 106.6666666666667 202.7083328 106.6666666666667L384 106.6666666666667C384 36.3548800000001 441.6882133333334 -21.3333333333333 512 -21.3333333333333C582.3117866666666 -21.3333333333333 640 36.3548800000001 640 106.6666666666667L821.2500053333333 106.6666666666667C874.7165653333333 106.6666666666667 911.5857493333332 164.7396480000001 888.8333226666666 213.124992A32.0032 32.0032 0 0 1 888.5416746666666 213.7499946666667L832 327.4999893333334L832 490.6666666666667C832 672.1323093333333 679.7501653333334 818.9148949333334 496.5833386666666 810.2916672zM499.5833386666666 746.3749994666666C647.2111786666667 753.3251050666667 768 636.5396906666667 768 490.6666666666667L768 320A32.0032 32.0032 0 0 1 771.3333333333333 305.7499946666667L830.916672 185.833344C834.7482879999999 177.6209706666667 830.3150293333333 170.6666666666668 821.2500053333333 170.6666666666668L202.7083328 170.6666666666668C193.6432426666667 170.6666666666668 189.2459392 177.6090880000001 193.0833322666667 185.833344C193.0833322666667 185.833344 193.0833322666667 185.875008 193.0833322666667 185.875008L252.6666666666667 305.7499946666667A32.0032 32.0032 0 0 1 256 320L256 482.5416746666667C256 621.2196693333333 362.2281813333333 739.9054421333333 499.5833386666666 746.3749994666666zM448 106.6666666666667L576 106.6666666666667C576 70.9517866666668 547.71488 42.6666666666667 512 42.6666666666667C476.28512 42.6666666666667 448 70.9517866666668 448 106.6666666666667z"/>
            <glyph glyph-name="right-arrow"
                   unicode="&#xF103;"
                   horiz-adv-x="1024"
                   d="M735.6666666666666 640.3333333333334A32.0032 32.0032 0 0 1 713.3749973333333 585.3749973333333L872.0833279999999 426.6666666666667L74.6666666666667 426.6666666666667A32.0032 32.0032 0 1 1 74.6666666666667 362.6666666666668L872.0833279999999 362.6666666666668L713.3749973333333 203.958336A32.0032 32.0032 0 1 1 758.6250026666667 158.7083306666667L971.958336 372.0416640000001A32.0032 32.0032 0 0 1 971.958336 417.2916693333334L758.6250026666667 630.6250026666667A32.0032 32.0032 0 0 1 735.6666666666666 640.3333333333334z"/>
            <glyph glyph-name="up-arrow"
                   unicode="&#xF104;"
                   horiz-adv-x="1024"
                   d="M500.875008 853.3333333333334A32.0032 32.0032 0 0 1 478.7083306666667 843.9583338666666L265.3749973333334 630.6250026666667A32.0032 32.0032 0 1 1 310.6250026666667 585.3749973333333L469.3333333333333 744.0833322666667L469.3333333333333 -53.3333333333333A32.0032 32.0032 0 1 1 533.3333333333333 -53.3333333333333L533.3333333333333 744.0833322666667L692.041664 585.3749973333333A32.0032 32.0032 0 1 1 737.2916693333333 630.6250026666667L523.9583359999999 843.9583338666666A32.0032 32.0032 0 0 1 500.875008 853.3333333333334z"/>
            <glyph glyph-name="expand-arrow"
                   unicode="&#xF105;"
                   horiz-adv-x="1024"
                   d="M927.7083306666666 640.4583253333333A32.0032 32.0032 0 0 1 905.3749973333335 630.6250026666667L512 237.2500053333333L118.6250005333333 630.6250026666667A32.0032 32.0032 0 0 1 95.6666666666667 640.3333333333334A32.0032 32.0032 0 0 1 73.3749994666667 585.3749973333333L489.3749973333333 169.3749973333334A32.0032 32.0032 0 0 1 534.6250026666667 169.3749973333334L950.6250026666665 585.3749973333333A32.0032 32.0032 0 0 1 927.7083306666666 640.4583253333333z"/>
            <glyph glyph-name="collapse-arrow"
                   unicode="&#xF106;"
                   horiz-adv-x="1024"
                   d="M511.5416746666666 650.6666666666667A32.0032 32.0032 0 0 1 489.3749973333333 641.2916693333334L73.3749994666667 225.2916693333334A32.0032 32.0032 0 1 1 118.6250005333333 180.0416640000001L512 573.4166613333334L905.3749973333335 180.0416640000001A32.0032 32.0032 0 1 1 950.6250026666665 225.2916693333334L534.6250026666667 641.2916693333334A32.0032 32.0032 0 0 1 511.5416746666666 650.6666666666667z"/>
            <glyph glyph-name="left-arrow"
                   unicode="&#xF107;"
                   horiz-adv-x="1024"
                   d="M287.3749973333334 618.958336A32.0032 32.0032 0 0 1 265.3749973333334 609.2916693333334L52.0416661333333 395.9583360000001A32.0032 32.0032 0 0 1 52.0416661333333 350.7083306666667L265.3749973333334 137.3749973333334A32.0032 32.0032 0 1 1 310.6250026666667 182.6250026666667L151.9166677333333 341.3333333333334L949.3333333333331 341.3333333333334A32.0032 32.0032 0 1 1 949.3333333333331 405.3333333333334L151.9166677333333 405.3333333333334L310.6250026666667 564.0416640000001A32.0032 32.0032 0 0 1 287.3749973333334 618.958336z"/>
            <glyph glyph-name="down"
                   unicode="&#xF108;"
                   horiz-adv-x="1024"
                   d="M522.166656 768.4583338666666A32.0032 32.0032 0 0 1 490.6666666666666 736L490.6666666666666 109.2500053333333L246.6250026666667 353.2916693333334A32.0032 32.0032 0 1 1 201.3749994666667 308.0416640000001L500.041664 9.3749973333333A32.0032 32.0032 0 0 1 545.2916693333333 9.3749973333333L843.9583359999999 308.0416640000001A32.0032 32.0032 0 1 1 798.7083306666666 353.2916693333334L554.6666666666666 109.2500053333333L554.6666666666666 736A32.0032 32.0032 0 0 1 522.166656 768.4583338666666z"/>
            <glyph glyph-name="right"
                   unicode="&#xF109;"
                   horiz-adv-x="1024"
                   d="M565 704.3333333333334A32.0032 32.0032 0 0 1 542.7083306666666 649.3749973333333L786.7499946666667 405.3333333333334L160 405.3333333333334A32.0032 32.0032 0 1 1 160 341.3333333333334L786.7499946666667 341.3333333333334L542.7083306666666 97.2916693333334A32.0032 32.0032 0 1 1 587.9583359999999 52.0416640000001L886.6250026666667 350.7083306666667A32.0032 32.0032 0 0 1 886.6250026666667 395.9583360000001L587.9583359999999 694.6250005333334A32.0032 32.0032 0 0 1 565 704.3333333333334z"/>
            <glyph glyph-name="forward"
                   unicode="&#xF10A;"
                   horiz-adv-x="1024"
                   d="M394.3333333333333 832.3333333333334A32.0032 32.0032 0 0 1 372.041664 777.3749994666666L765.4166613333333 384L372.041664 -9.3749973333333A32.0032 32.0032 0 1 1 417.2916693333333 -54.6250026666667L833.2916693333333 361.3749973333334A32.0032 32.0032 0 0 1 833.2916693333333 406.6250026666667L417.2916693333333 822.6250005333334A32.0032 32.0032 0 0 1 394.3333333333333 832.3333333333334z"/>
            <glyph glyph-name="reset"
                   unicode="&#xF10B;"
                   horiz-adv-x="1024"
                   d="M799.4999893333334 768.4583338666666A32.0032 32.0032 0 0 1 768 736L768 669.7499946666667C700.0720213333334 730.7274752000001 610.3322453333333 768 512 768C300.2965333333333 768 128 595.7034666666667 128 384C128 172.2965333333334 300.2965333333333 0 512 0C723.7034666666666 0 896 172.2965333333334 896 384C896 404.3043200000001 893.9694933333333 423.6578773333333 891.1666773333333 442.124992A32.0032 32.0032 0 1 1 827.916672 432.5416746666667C830.4045013333332 416.1501226666667 832 400.04768 832 384C832 206.8821333333334 689.1178666666666 64 512 64C334.8821333333333 64 192 206.8821333333334 192 384C192 561.1178666666667 334.8821333333333 704 512 704C595.9308159999999 704 671.5831893333333 671.413312 728.5416746666666 618.6666666666667L650.6666666666666 618.6666666666667A32.0032 32.0032 0 1 1 650.6666666666666 554.6666666666667L800 554.6666666666667A32.0032 32.0032 0 0 1 832 586.6666666666667L832 736A32.0032 32.0032 0 0 1 799.4999893333334 768.4583338666666z"/>
            <glyph glyph-name="less-than"
                   unicode="&#xF10C;"
                   horiz-adv-x="1024"
                   d="M628.2500053333333 789.6250005333334A32.0032 32.0032 0 0 1 606.3749973333333 779.6250005333334L243.7083306666667 406.2916693333334A32.0032 32.0032 0 0 1 243.7083306666667 361.7083306666667L606.3749973333333 -11.6250026666667A32.0032 32.0032 0 1 1 652.2916693333333 32.958336L311.2916693333333 384L652.2916693333333 735.0416661333334A32.0032 32.0032 0 0 1 628.2500053333333 789.6250005333334z"/>
            <glyph glyph-name="collapse"
                   unicode="&#xF10D;"
                   horiz-adv-x="1024"
                   d="M159.6666666666667 768.3333333333334A32.0032 32.0032 0 0 1 137.3749994666667 713.3749994666666L360.083328 490.6666666666667L224 490.6666666666667A32.0032 32.0032 0 1 1 224 426.6666666666667L437.3333333333333 426.6666666666667A32.0032 32.0032 0 0 1 469.3333333333333 458.6666666666667L469.3333333333333 672A32.0032 32.0032 0 1 1 405.3333333333333 672L405.3333333333333 535.9166720000001L182.6250005333333 758.6250005333334A32.0032 32.0032 0 0 1 159.6666666666667 768.3333333333334zM863.3749973333333 768.2916672A32.0032 32.0032 0 0 1 841.3749973333333 758.6250005333334L618.6666666666666 535.9166720000001L618.6666666666666 672A32.0032 32.0032 0 1 1 554.6666666666666 672L554.6666666666666 458.6666666666667A32.0032 32.0032 0 0 1 586.6666666666666 426.6666666666667L800 426.6666666666667A32.0032 32.0032 0 1 1 800 490.6666666666667L663.916672 490.6666666666667L886.6250026666667 713.3749994666666A32.0032 32.0032 0 0 1 863.3749973333333 768.2916672zM224 341.3333333333334A32.0032 32.0032 0 1 1 224 277.3333333333334L360.083328 277.3333333333334L137.3749994666667 54.6250026666667A32.0032 32.0032 0 1 1 182.6250005333333 9.3749973333333L405.3333333333333 232.0833280000001L405.3333333333333 96A32.0032 32.0032 0 1 1 469.3333333333333 96L469.3333333333333 309.3333333333334A32.0032 32.0032 0 0 1 437.3333333333333 341.3333333333334L224 341.3333333333334zM586.6666666666666 341.3333333333334A32.0032 32.0032 0 0 1 554.6666666666666 309.3333333333334L554.6666666666666 96A32.0032 32.0032 0 1 1 618.6666666666666 96L618.6666666666666 232.0833280000001L841.3749973333333 9.3749973333333A32.0032 32.0032 0 1 1 886.6250026666667 54.6250026666667L663.916672 277.3333333333334L800 277.3333333333334A32.0032 32.0032 0 1 1 800 341.3333333333334L586.6666666666666 341.3333333333334z"/>
            <glyph glyph-name="search"
                   unicode="&#xF10E;"
                   horiz-adv-x="1024"
                   d="M437.3333333333333 768C266.872192 768 128 629.12768 128 458.6666666666667C128 288.2056533333335 266.872192 149.3333333333334 437.3333333333333 149.3333333333334C511.068992 149.3333333333334 578.8524586666666 175.3803946666667 632.0833279999999 218.6666666666668L841.3749973333333 9.3749973333333A32.0032 32.0032 0 1 1 886.6250026666667 54.6250026666667L677.3333333333333 263.9166720000001C720.6196053333333 317.1475413333334 746.6666666666666 384.9310506666667 746.6666666666666 458.6666666666667C746.6666666666666 629.12768 607.7944746666667 768 437.3333333333333 768zM437.3333333333333 704C573.206336 704 682.6666666666666 594.539584 682.6666666666666 458.6666666666667C682.6666666666666 392.4776106666667 656.5588906666667 332.6780373333334 614.2083413333332 288.6250026666667A32.0032 32.0032 0 0 1 607.3749973333333 281.7916586666668C563.3219626666666 239.4410880000001 503.522432 213.3333333333334 437.3333333333333 213.3333333333334C301.4603306666667 213.3333333333334 192 322.7937493333334 192 458.6666666666667C192 594.539584 301.4603306666667 704 437.3333333333333 704z"/>
            <glyph glyph-name="funnel"
                   unicode="&#xF10F;"
                   horiz-adv-x="1024"
                   d="M181.3333333333333 768C152.2433237333334 768 128 743.7566762666667 128 714.6666666666667L128 648.7499946666667C128 599.7547946666666 150.5168469333334 553.4114773333333 189 523.083328A32.0032 32.0032 0 0 1 189.1250005333333 523L405.3333333333333 354.2916693333334L405.3333333333333 32A32.0032 32.0032 0 0 1 455.9166719999999 5.958336L605.2500053333333 112.6250026666667A32.0032 32.0032 0 0 1 618.6666666666666 138.6666666666668L618.6666666666666 354.2916693333334L834.875008 523A32.0032 32.0032 0 0 1 835 523.083328C873.4822826666666 553.4116053333333 896 599.7547946666666 896 648.7499946666667L896 714.6666666666667C896 743.7566762666667 871.756672 768 842.6666666666666 768L181.3333333333333 768zM192 704L832 704L832 648.7499946666667C832 619.3238826666667 818.5441706666667 591.601536 795.4166613333333 573.3749973333333L567 395.1666773333334A32.0032 32.0032 0 0 1 554.6666666666666 369.9166720000001L554.6666666666666 155.124992L469.3333333333333 94.1666560000001L469.3333333333333 369.9166720000001A32.0032 32.0032 0 0 1 457 395.1666773333334L228.5833386666667 573.3749973333333C205.4558122666667 591.601536 192 619.3238826666667 192 648.7499946666667L192 704z"/>
            <glyph glyph-name="barcode-reader"
                   unicode="&#xF110;"
                   horiz-adv-x="1024"
                   d="M224 768C183.1476309333333 768 149.3333333333333 734.1857024000001 149.3333333333333 693.3333333333334L149.3333333333333 659.083328C149.3333333333333 534.8792106666667 261.6724266666667 439.2104960000001 384.2916693333333 459L535.6666666666666 483.4166613333334C549.3425493333333 447.8408106666667 565.9033173333332 424.292032 578.875008 411.6250026666667C594.1437226666667 396.7149013333334 598.3386666666667 396.5285120000001 603.9583359999999 374.0416640000001C609.706048 351.0349226666667 605.5623893333333 344.0123306666667 598.0833279999999 328.124992C590.6042026666667 312.2376746666667 576.5804373333333 285.0500480000001 584.6666666666666 251.5833386666667C592.3795413333332 219.7270613333334 611.780992 201.0375040000001 622.4583253333333 188.124992C633.13568 175.2125013333333 638.6420479999999 168.7115520000001 639.2083413333332 144.5416746666667C640.0879146666666 106.8246826666667 640.0833279999999 53.3333333333334 640.0833279999999 53.3333333333334C640.0833279999999 0.6933120000001 683.4433066666667 -42.6666666666666 736.0833279999999 -42.6666666666666L757.2916693333333 -42.6666666666666C831.6413866666667 -42.6666666666666 887.9583146666666 27.5480746666667 871.8333439999999 100.124992L777.916672 522.8333226666667C833.5090773333333 532.8023253333333 874.6666666666666 581.3206186666666 874.6666666666666 638L874.6666666666666 650.6666666666667C874.6666666666666 715.0885141333333 821.7551786666666 768 757.3333333333333 768L224 768zM224 704L757.3333333333333 704C787.1621546666667 704 810.6666666666666 680.495488 810.6666666666666 650.6666666666667L810.6666666666666 638C810.6666666666666 611.5799466666667 791.8847786666666 589.5690453333334 765.8333439999999 585.3749973333333L374.083328 522.1666560000001C289.171904 508.4628266666667 213.3333333333333 573.0687786666667 213.3333333333333 659.083328L213.3333333333333 693.3333333333334C213.3333333333333 699.6276309333334 217.7057066666667 704 224 704zM714.7083306666666 512.2916693333334L809.3749973333333 86.2500053333333C816.9300266666667 52.2455893333334 792.125952 21.3333333333334 757.2916693333333 21.3333333333334L736.0833279999999 21.3333333333334C718.0246826666666 21.3333333333334 704.0833279999999 35.274688 704.0833279999999 53.3333333333334C704.0833279999999 53.3333333333334 704.1218346666666 106.9159893333334 703.2083413333332 146.0416640000001C702.3025279999999 184.6984533333333 685.6743253333334 212.0861653333334 671.7916586666666 228.875008C657.9090133333333 245.6638293333333 650.298112 252.486592 646.875008 266.6250026666667C643.8892373333333 278.982272 647.2082346666666 282.2876586666667 655.9583359999999 300.875008C664.7085226666666 319.4623360000001 675.6966186666666 350.8950826666667 666.041664 389.5416746666667C657.0693333333334 425.44416 636.2452906666666 445.052096 623.5833386666666 457.4166613333334C614.7840426666667 466.00928 607.3203626666666 476.899264 599.7083306666666 493.7499946666667L714.7083306666666 512.2916693333334zM159.5 235.124992A32.0032 32.0032 0 0 1 128 202.6666666666668L128 10.6666666666667A32.0032 32.0032 0 1 1 192 10.6666666666667L192 202.6666666666668A32.0032 32.0032 0 0 1 159.5 235.124992zM479.4999893333334 235.124992A32.0032 32.0032 0 0 1 448 202.6666666666668L448 10.6666666666667A32.0032 32.0032 0 1 1 512 10.6666666666667L512 202.6666666666668A32.0032 32.0032 0 0 1 479.4999893333334 235.124992zM383.6666666666667 234.9583360000001A21.3354666666667 21.3354666666667 0 0 1 362.6666666666667 213.3333333333334L362.6666666666667 0A21.3354666666667 21.3354666666667 0 1 1 405.3333333333333 0L405.3333333333333 213.3333333333334A21.3354666666667 21.3354666666667 0 0 1 383.6666666666667 234.9583360000001zM256 234.6666666666668C244.224 234.6666666666668 234.6666666666667 225.1093333333333 234.6666666666667 213.3333333333334L234.6666666666667 0C234.6666666666667 -11.776 244.224 -21.3333333333333 256 -21.3333333333333L298.6666666666667 -21.3333333333333C310.4426666666667 -21.3333333333333 320 -11.776 320 0L320 213.3333333333334C320 225.1093333333333 310.4426666666667 234.6666666666668 298.6666666666667 234.6666666666668L256 234.6666666666668z"/>
            <glyph glyph-name="user-location"
                   unicode="&#xF111;"
                   horiz-adv-x="1024"
                   d="M512 853.3333333333334C323.867968 853.3333333333334 170.6666666666667 700.1320384 170.6666666666667 512C170.6666666666667 430.6112 220.9494826666667 333.6526293333334 279.124992 238C337.29376 142.3584640000002 405.3895253333333 50.9778773333335 447.4583253333334 -3.2500053333333C479.665536 -44.7776213333333 544.2927786666667 -44.7776213333333 576.5000106666666 -3.2500053333333C618.5813546666666 50.9802026666666 686.7033386666667 142.3581440000001 744.875008 238C803.0534186666666 333.6529706666668 853.3333333333333 430.6112 853.3333333333333 512C853.3333333333333 700.1320384 700.132032 853.3333333333334 512 853.3333333333334zM512 789.3333333333334C665.5426346666666 789.3333333333334 789.3333333333333 665.5426346666667 789.3333333333333 512C789.3333333333333 460.6314666666667 746.2175786666667 363.4050346666668 690.166656 271.2500053333333C634.1157546666666 179.0949546666668 567.1634346666666 89.0584533333334 525.9583359999999 35.958336C518.3575466666666 26.157952 505.6424533333333 26.157952 498.041664 35.958336C456.845312 89.0607786666667 389.881792 179.0946346666667 333.833344 271.2500053333333C277.784832 363.4053546666667 234.6666666666667 460.6314666666667 234.6666666666667 512C234.6666666666667 665.5426346666667 358.4573653333333 789.3333333333334 512 789.3333333333334zM512 661.3333333333334A85.3333333333333 85.3333333333333 0 0 1 512 490.6666666666667A85.3333333333333 85.3333333333333 0 0 1 512 661.3333333333334zM393.5416746666666 448C376.475008 448 362.6666666666667 434.1916586666668 362.6666666666667 417.124992L362.6666666666667 389.2916693333334C362.6666666666667 341.8676693333334 423.1893333333333 298.6666666666668 512 298.6666666666668C600.8106666666666 298.6666666666668 661.3333333333333 341.8676693333334 661.3333333333333 389.2916693333334L661.3333333333333 417.124992C661.3333333333333 434.1916586666668 647.524992 448 630.4583253333333 448L393.5416746666666 448z"/>
            <glyph glyph-name="user"
                   unicode="&#xF112;"
                   horiz-adv-x="1024"
                   d="M512 810.6666666666666C394.5582293333333 810.6666666666666 298.6666666666667 714.7750186666667 298.6666666666667 597.3333333333334C298.6666666666667 479.891648 394.5582293333333 384 512 384C629.4417706666666 384 725.3333333333333 479.891648 725.3333333333333 597.3333333333334C725.3333333333333 714.7750186666667 629.4417706666666 810.6666666666666 512 810.6666666666666zM512 746.6666666666667C594.853632 746.6666666666667 661.3333333333333 680.1869226666668 661.3333333333333 597.3333333333334C661.3333333333333 514.479744 594.853632 448 512 448C429.146368 448 362.6666666666667 514.479744 362.6666666666667 597.3333333333334C362.6666666666667 680.1869226666668 429.146368 746.6666666666667 512 746.6666666666667zM255.5416746666667 298.6666666666668C209.0390272 298.6666666666668 170.6666666666667 260.2942933333334 170.6666666666667 213.7916586666668L170.6666666666667 181.3333333333334C170.6666666666667 104.4444373333334 219.2910933333333 44.9658240000001 283.875008 9.3333333333334C348.4589013333333 -26.2991573333334 430.252864 -42.6666666666666 512 -42.6666666666666C593.747136 -42.6666666666666 675.5410986666666 -26.2991573333334 740.124992 9.3333333333334C795.1923413333334 39.7153066666667 836.6364799999999 88.264192 848.2500053333333 149.3333333333334L853.3749973333333 149.3333333333334L853.3749973333333 213.7916586666668C853.3749973333333 260.2942933333334 814.96096 298.6666666666668 768.4583253333333 298.6666666666668L255.5416746666667 298.6666666666668zM255.5416746666667 234.6666666666668L768.4583253333333 234.6666666666668C780.3663786666666 234.6666666666668 789.3749973333333 225.6997120000001 789.3749973333333 213.7916586666668L789.3749973333333 213.3333333333334L789.3333333333333 213.3333333333334L789.3333333333333 181.3333333333334C789.3333333333333 130.2222293333333 760.6244266666665 93.7008426666666 709.2083413333332 65.3333333333334C657.7922346666667 36.9658240000001 584.9195306666666 21.3333333333334 512 21.3333333333334C439.0804693333334 21.3333333333334 366.2077653333334 36.9658240000001 314.7916586666667 65.3333333333334C263.3755733333333 93.7008426666666 234.6666666666667 130.2222293333333 234.6666666666667 181.3333333333334L234.6666666666667 213.7916586666668C234.6666666666667 225.6997120000001 243.6336213333333 234.6666666666668 255.5416746666667 234.6666666666668z"/>
            <glyph glyph-name="change-user"
                   unicode="&#xF113;"
                   horiz-adv-x="1024"
                   d="M512 791.0833322666667C366.26688 791.0833322666667 235.7854933333334 724.6463445333334 149.3333333333333 620.4583253333333L149.3333333333333 736A32.0032 32.0032 0 0 1 116.8333333333333 768.4583338666666A32.0032 32.0032 0 0 1 85.3333333333333 736L85.3333333333333 544A32.0032 32.0032 0 0 1 117.3333333333333 512L135.2500010666667 512L309.3333333333333 512A32.0032 32.0032 0 1 1 309.3333333333333 576L195.4583338666667 576C270.0557866666667 668.1589546666667 383.9605333333333 727.0833322666667 512 727.0833322666667C652.3472426666666 727.0833322666667 775.7070719999999 656.3118293333333 848.9583359999999 548.5416746666667A32.0061994666667 32.0061994666667 0 1 1 901.916672 584.5000106666666C817.1732693333333 709.177824 673.903424 791.0833365333333 512 791.0833322666667zM512 592.0416640000001C465.329792 592.0416640000001 426.2831573333334 573.391488 401.083328 545.0416640000001C375.8834986666667 516.6918400000001 364 480.1137706666667 364 444C364 407.8862293333334 375.8834986666667 371.349824 401.083328 343C426.2831573333334 314.6501760000001 465.329792 296 512 296C593.3650346666666 296 660 362.6350293333334 660 444C660 525.3649706666667 593.3650346666666 592.0416640000001 512 592.0416640000001zM512 528.0416640000001C558.776896 528.0416640000001 596 490.7768746666667 596 444C596 397.2231253333334 558.776896 360 512 360C481.329792 360 462.3870506666666 370.3458133333334 448.916672 385.4999893333334C435.4462933333333 400.6541866666667 428 422.1084373333333 428 444C428 465.8915626666667 435.4462933333333 487.3458133333334 448.916672 502.5000106666666C462.3870506666666 517.6541866666666 481.329792 528.0416640000001 512 528.0416640000001zM350.2083413333333 256C311.5374933333333 256 276 226.6621013333334 276 186.4583253333334L276 120.7083306666667C276 76.5957333333334 306.682752 40.0743040000001 348.7083306666667 16.2500053333333C390.7339306666667 -7.5742933333332 446.6946986666667 -21.3749973333333 511.958336 -21.3749973333333C577.2219733333333 -21.3749973333333 633.21984 -7.5733546666667 675.2500053333333 16.2500053333333C717.2801706666667 40.0733440000001 748 76.5917866666667 748 120.7083306666667L748 154.4583253333334L748 186.4583253333334C748 226.6168746666667 712.496576 256 673.7916586666666 256L350.2083413333333 256zM350.2083413333333 192L673.7916586666666 192C681.764096 192 684 187.7291306666666 684 186.4583253333334L684 120.7083306666667C684 107.2248746666668 673.3581653333333 88.7226453333333 643.7083306666666 71.9166720000001C614.058496 55.1106773333333 567.996032 42.6250026666667 511.958336 42.6250026666667C455.9206399999999 42.6250026666667 409.9354026666666 55.1116373333333 380.2916693333333 71.9166720000001C350.6479146666666 88.7217066666667 340 107.2209280000001 340 120.7083306666667L340 186.4583253333334C340 187.7265706666667 342.2871893333334 192 350.2083413333333 192z"/>
            <glyph glyph-name="logout"
                   unicode="&#xF114;"
                   horiz-adv-x="1024"
                   d="M245.3333333333333 768C180.9114858666667 768 128 715.0885141333333 128 650.6666666666667L128 117.3333333333334C128 52.9114880000001 180.9114858666667 0 245.3333333333333 0L629.3333333333333 0C693.7551786666666 0 746.6666666666666 52.9114880000001 746.6666666666666 117.3333333333334A32.0032 32.0032 0 1 1 682.6666666666666 117.3333333333334C682.6666666666666 87.504512 659.1621546666667 64 629.3333333333333 64L245.3333333333333 64C215.504512 64 192 87.504512 192 117.3333333333334L192 650.6666666666667C192 680.495488 215.504512 704 245.3333333333333 704L629.3333333333333 704C659.1621546666667 704 682.6666666666666 680.495488 682.6666666666666 650.6666666666667A32.0032 32.0032 0 1 1 746.6666666666666 650.6666666666667C746.6666666666666 715.0885141333333 693.7551786666666 768 629.3333333333333 768L245.3333333333333 768zM714.3333333333333 565.6666666666667A32.0032 32.0032 0 0 1 692.041664 510.7083306666667L786.7499946666667 416L330.6666666666667 416A32.0032 32.0032 0 1 1 330.6666666666667 352L786.7499946666667 352L692.041664 257.2916693333334A32.0032 32.0032 0 1 1 737.2916693333333 212.0416640000001L886.6250026666667 361.3749973333334A32.0032 32.0032 0 0 1 886.6250026666667 406.6250026666667L737.2916693333333 555.958336A32.0032 32.0032 0 0 1 714.3333333333333 565.6666666666667z"/>
            <glyph glyph-name="shutdown"
                   unicode="&#xF115;"
                   horiz-adv-x="1024"
                   d="M511.4999893333334 811.1250005333334A32.0032 32.0032 0 0 1 480 778.6666666666666L480 437.3333333333334A32.0032 32.0032 0 1 1 544 437.3333333333334L544 778.6666666666666A32.0032 32.0032 0 0 1 511.4999893333334 811.1250005333334zM650.875008 697.1250005333334A32.0032 32.0032 0 0 1 638.041664 635.5416746666667C752.0273279999999 586.640832 832 473.5705813333333 832 341.3333333333334C832 164.2154666666668 689.1178666666666 21.3333333333334 512 21.3333333333334C334.8821333333333 21.3333333333334 192 164.2154666666668 192 341.3333333333334C192 473.5938133333333 271.969856 586.639616 385.958336 635.5416746666667A32.0114154666667 32.0114154666667 0 1 1 360.7083306666667 694.3749994666666C223.774144 635.6290346666667 128 499.41952 128 341.3333333333334C128 129.6298666666667 300.2965333333333 -42.6666666666666 512 -42.6666666666666C723.7034666666666 -42.6666666666666 896 129.6298666666667 896 341.3333333333334C896 499.4000853333334 800.228672 635.62784 663.2916693333333 694.3749994666666A32.0032 32.0032 0 0 1 650.875008 697.1250005333334z"/>
            <glyph glyph-name="multiply"
                   unicode="&#xF116;"
                   horiz-adv-x="1024"
                   d="M842.3749973333333 747.1250005333334A32.0032 32.0032 0 0 1 820.041664 737.2916672L512 429.2500053333333L203.9583338666667 737.2916672A32.0032 32.0032 0 0 1 181 747A32.0032 32.0032 0 0 1 158.7083328 692.0416661333334L466.7499946666667 384L158.7083328 75.958336A32.0032 32.0032 0 1 1 203.9583338666667 30.7083306666667L512 338.7499946666667L820.041664 30.7083306666667A32.0032 32.0032 0 1 1 865.2916693333333 75.958336L557.2500053333333 384L865.2916693333333 692.0416661333334A32.0032 32.0032 0 0 1 842.3749973333333 747.1250005333334z"/>
            <glyph glyph-name="received"
                   unicode="&#xF117;"
                   horiz-adv-x="1024"
                   d="M224 789.3333333333334C147.6266666666667 789.3333333333334 85.3333333333333 727.04 85.3333333333333 650.6666666666667L85.3333333333333 245.3333333333334C85.3333333333333 168.96 147.6266666666667 106.6666666666667 224 106.6666666666667L472.5416746666666 106.6666666666667C470.4083413333333 120.5333333333333 469.3333333333333 134.8266666666667 469.3333333333333 149.3333333333334C469.3333333333333 156.5866666666668 469.563328 163.6266666666668 470.4166613333333 170.6666666666668L224 170.6666666666668C182.8266666666667 170.6666666666668 149.3333333333333 204.1600000000001 149.3333333333333 245.3333333333334L149.3333333333333 554.3333333333334L496.7916586666666 366.5000106666667A32.0032 32.0032 0 0 1 527.2083413333332 366.5000106666667L874.6666666666666 554.3333333333334L874.6666666666666 395.2916693333334C898.1333333333333 383.1316693333333 919.68 367.5550080000001 938.6666666666666 349.2083413333334L938.6666666666666 650.6666666666667C938.6666666666666 727.04 876.3733333333332 789.3333333333334 800 789.3333333333334L224 789.3333333333334zM224 725.3333333333334L800 725.3333333333334C841.1733333333333 725.3333333333334 874.6666666666666 691.84 874.6666666666666 650.6666666666667L874.6666666666666 627.083328L512 431.0416640000001L149.3333333333333 627.083328L149.3333333333333 650.6666666666667C149.3333333333333 691.84 182.8266666666667 725.3333333333334 224 725.3333333333334zM746.6666666666666 384C617.0666666666666 384 512 278.9333333333334 512 149.3333333333334C512 19.7333333333334 617.0666666666666 -85.3333333333333 746.6666666666666 -85.3333333333333C876.2666666666667 -85.3333333333333 981.3333333333331 19.7333333333334 981.3333333333331 149.3333333333334C981.3333333333331 278.9333333333334 876.2666666666667 384 746.6666666666666 384zM874.6666666666666 256C880.1226666666666 256 885.5793279999999 253.9206613333334 889.7499946666667 249.7499946666667C898.091328 241.4086613333334 898.091328 227.9246720000001 889.7499946666667 219.5833386666667L719.0833279999999 48.9166720000001C714.923328 44.756672 709.4613333333333 42.6666666666667 704 42.6666666666667C698.5386666666666 42.6666666666667 693.0766719999999 44.756672 688.916672 48.9166720000001L603.5833386666666 134.2500053333333C595.2420053333333 142.5913386666666 595.2420053333333 156.0753280000001 603.5833386666666 164.4166613333334C611.924672 172.7579946666667 625.4086613333333 172.7579946666667 633.7499946666667 164.4166613333334L704 94.1666560000001L859.5833386666666 249.7499946666667C863.7540053333333 253.9206613333334 869.2106666666666 256 874.6666666666666 256z"/>
            <glyph glyph-name="done"
                   unicode="&#xF118;"
                   horiz-adv-x="1024"
                   d="M927.3749973333335 704.2916672A32.0032 32.0032 0 0 1 905.3749973333335 694.6250005333334L352 141.2500053333333L118.6250005333333 374.6250026666667A32.0032 32.0032 0 1 1 73.3749994666667 329.3749973333334L329.3749973333334 73.3749973333333A32.0032 32.0032 0 0 1 374.6250026666667 73.3749973333333L950.6250026666665 649.3749973333333A32.0032 32.0032 0 0 1 927.3749973333335 704.2916672z"/>
            <glyph glyph-name="ok"
                   unicode="&#xF119;"
                   horiz-adv-x="1024"
                   d="M512 810.6666666666666C276.737408 810.6666666666666 85.3333333333333 619.2624213333334 85.3333333333333 384C85.3333333333333 148.7375786666667 276.737408 -42.6666666666666 512 -42.6666666666666C747.262592 -42.6666666666666 938.6666666666666 148.7375786666667 938.6666666666666 384C938.6666666666666 619.2624213333334 747.262592 810.6666666666666 512 810.6666666666666zM512 746.6666666666667C712.6744533333333 746.6666666666667 874.6666666666666 584.6743253333334 874.6666666666666 384C874.6666666666666 183.3256746666666 712.6744533333333 21.3333333333334 512 21.3333333333334C311.3255466666667 21.3333333333334 149.3333333333333 183.3256746666666 149.3333333333333 384C149.3333333333333 584.6743253333334 311.3255466666667 746.6666666666667 512 746.6666666666667zM671.3749973333333 512.2916693333334A32.0032 32.0032 0 0 1 649.3749973333333 502.6250026666667L458.6666666666666 311.9166720000001L374.6250026666667 395.9583360000001A32.0032 32.0032 0 1 1 329.3749973333334 350.7083306666667L436.041664 244.0416640000001A32.0032 32.0032 0 0 1 481.2916693333333 244.0416640000001L694.6250026666667 457.3749973333333A32.0032 32.0032 0 0 1 671.3749973333333 512.2916693333334z"/>
            <glyph glyph-name="info"
                   unicode="&#xF11A;"
                   horiz-adv-x="1024"
                   d="M512 810.6666666666666C276.737408 810.6666666666666 85.3333333333333 619.2624213333334 85.3333333333333 384C85.3333333333333 148.7375786666667 276.737408 -42.6666666666666 512 -42.6666666666666C747.262592 -42.6666666666666 938.6666666666666 148.7375786666667 938.6666666666666 384C938.6666666666666 619.2624213333334 747.262592 810.6666666666666 512 810.6666666666666zM512 746.6666666666667C712.6744533333333 746.6666666666667 874.6666666666666 584.6743253333334 874.6666666666666 384C874.6666666666666 183.3256746666666 712.6744533333333 21.3333333333334 512 21.3333333333334C311.3255466666667 21.3333333333334 149.3333333333333 183.3256746666666 149.3333333333333 384C149.3333333333333 584.6743253333334 311.3255466666667 746.6666666666667 512 746.6666666666667zM512 597.3333333333334A42.6666666666667 42.6666666666667 0 0 1 512 512A42.6666666666667 42.6666666666667 0 0 1 512 597.3333333333334zM511.4999893333334 448.4583253333334A32.0032 32.0032 0 0 1 480 416L480 181.3333333333334A32.0032 32.0032 0 1 1 544 181.3333333333334L544 416A32.0032 32.0032 0 0 1 511.4999893333334 448.4583253333334z"/>
            <glyph glyph-name="error"
                   unicode="&#xF11B;"
                   horiz-adv-x="1024"
                   d="M512 788.2083328C478.838272 788.2083328 445.6765653333333 772.0375552 427.7499946666667 739.6666666666667L97.5 143.0416640000001C62.6708181333333 80.1113173333333 109.8258432 0 181.7499989333333 0L842.2916693333333 0C914.2158293333334 0 961.3708373333334 80.1113173333333 926.5416746666666 143.0416640000001L596.2500053333333 739.6666666666667C578.3234346666666 772.0375552 545.1617279999999 788.2083328 512 788.2083328zM512 726.4166656C522.8489386666666 726.4166656 533.6859093333333 720.5197781333334 540.2500053333333 708.6666666666667L870.5416746666666 112.0416640000001C883.2004906666666 89.1693440000001 868.3728426666667 64 842.2916693333333 64L181.7499989333333 64C155.6688277333333 64 140.8411818666667 89.1693440000001 153.5 112.0416640000001L483.7499946666667 708.6666666666667C490.3140906666666 720.5197781333334 501.1510613333333 726.4166677333333 512 726.4166656zM511.4999893333334 555.124992A32.0032 32.0032 0 0 1 480 522.6666666666667L480 309.3333333333334A32.0032 32.0032 0 1 1 544 309.3333333333334L544 522.6666666666667A32.0032 32.0032 0 0 1 511.4999893333334 555.124992zM512 213.3333333333334A42.6666666666667 42.6666666666667 0 0 1 512 128A42.6666666666667 42.6666666666667 0 0 1 512 213.3333333333334z"/>
            <glyph glyph-name="plus--"
                   unicode="&#xF11C;"
                   horiz-adv-x="1024"
                   d="M512 810.6666666666666C276.736 810.6666666666666 85.3333333333333 619.264 85.3333333333333 384S276.736 -42.6666666666666 512 -42.6666666666666S938.6666666666666 148.7360000000001 938.6666666666666 384S747.2639999999999 810.6666666666666 512 810.6666666666666zM693.3333333333333 352H544V202.6666666666668C544 184.9813333333334 529.6853333333333 170.6666666666668 512 170.6666666666668S480 184.9813333333334 480 202.6666666666668V352H330.6666666666667C312.9813333333333 352 298.6666666666667 366.3146666666667 298.6666666666667 384S312.9813333333333 416 330.6666666666667 416H480V565.3333333333334C480 583.0186666666667 494.3146666666667 597.3333333333334 512 597.3333333333334S544 583.0186666666667 544 565.3333333333334V416H693.3333333333333C711.0186666666666 416 725.3333333333333 401.6853333333334 725.3333333333333 384S711.0186666666666 352 693.3333333333333 352z"/>
            <glyph glyph-name="plus-math"
                   unicode="&#xF11D;"
                   horiz-adv-x="1024"
                   d="M511.4999893333334 789.7916672A32.0032 32.0032 0 0 1 480 757.3333333333334L480 416L138.6666666666667 416A32.0032 32.0032 0 1 1 138.6666666666667 352L480 352L480 10.6666666666667A32.0032 32.0032 0 1 1 544 10.6666666666667L544 352L885.3333333333333 352A32.0032 32.0032 0 1 1 885.3333333333333 416L544 416L544 757.3333333333334A32.0032 32.0032 0 0 1 511.4999893333334 789.7916672z"/>
            <glyph glyph-name="plus-minus----"
                   unicode="&#xF11E;"
                   horiz-adv-x="1024"
                   d="M511.4999893333334 811.1250005333334A32.0032 32.0032 0 0 1 480 778.6666666666666L480 533.3333333333334L234.6666666666667 533.3333333333334A32.0032 32.0032 0 1 1 234.6666666666667 469.3333333333334L480 469.3333333333334L480 224A32.0032 32.0032 0 1 1 544 224L544 469.3333333333334L789.3333333333333 469.3333333333334A32.0032 32.0032 0 1 1 789.3333333333333 533.3333333333334L544 533.3333333333334L544 778.6666666666666A32.0032 32.0032 0 0 1 511.4999893333334 811.1250005333334zM245.3333333333333 85.3333333333334A32.0032 32.0032 0 1 1 245.3333333333333 21.3333333333334L778.6666666666666 21.3333333333334A32.0032 32.0032 0 1 1 778.6666666666666 85.3333333333334L245.3333333333333 85.3333333333334z"/>
            <glyph glyph-name="mail"
                   unicode="&#xF11F;"
                   horiz-adv-x="1024"
                   d="M224 725.3333333333334C147.7986538666667 725.3333333333334 85.3333333333333 662.8680106666667 85.3333333333333 586.6666666666667L85.3333333333333 181.3333333333334C85.3333333333333 105.1319893333333 147.7986538666667 42.6666666666667 224 42.6666666666667L800 42.6666666666667C876.2013440000001 42.6666666666667 938.6666666666666 105.1319893333333 938.6666666666666 181.3333333333334L938.6666666666666 586.6666666666667C938.6666666666666 662.8680106666667 876.2013440000001 725.3333333333334 800 725.3333333333334L224 725.3333333333334zM224 661.3333333333334L800 661.3333333333334C841.6013226666666 661.3333333333334 874.6666666666666 628.2679893333334 874.6666666666666 586.6666666666667L874.6666666666666 563.083328L512 367.0416640000001L149.3333333333333 563.083328L149.3333333333333 586.6666666666667C149.3333333333333 628.2679893333334 182.3986794666667 661.3333333333334 224 661.3333333333334zM149.3333333333333 490.3333333333334L496.7916586666666 302.5000106666667A32.0032 32.0032 0 0 1 527.2083413333332 302.5000106666667L874.6666666666666 490.3333333333334L874.6666666666666 181.3333333333334C874.6666666666666 139.7320106666666 841.6013226666666 106.6666666666667 800 106.6666666666667L224 106.6666666666667C182.3986794666667 106.6666666666667 149.3333333333333 139.7320106666666 149.3333333333333 181.3333333333334L149.3333333333333 490.3333333333334z"/>
            <glyph glyph-name="no-phones"
                   unicode="&#xF120;"
                   horiz-adv-x="1024"
                   d="M906.041664 810.9583338666666A32.0032 32.0032 0 0 1 884.041664 801.2916672L94.7083328 11.958336A32.0032 32.0032 0 1 1 139.9583338666667 -33.2916693333333L352.3749973333334 179.124992C433.5378773333333 64.8441173333334 523.7310933333333 -9.6442026666666 623.4166613333333 -36.9166719999999C677.848768 -51.8149973333334 736.5685119999999 -37.6008319999999 777.7916586666666 0.7083306666667L816.166656 36.3333333333334C859.153472 76.2454826666667 865.6046293333334 142.7225173333334 830.875008 189.958336L830.8333226666666 189.958336L775.3749973333333 265.3333333333334C745.6248533333334 305.7419946666667 693.182144 322.945792 644.9583359999999 308.4583253333334L558.0833279999999 282.4583253333334C554.4384213333333 281.3940053333334 545.7157119999999 286.3581226666668 538.124992 292.9166720000001L538.0833279999999 292.9583360000001C529.0799573333334 300.7899733333334 517.6864426666666 314.0743466666668 505.2500053333333 332L929.2916693333332 756.0416661333334A32.0032 32.0032 0 0 1 906.041664 810.9583338666666zM406.3333333333333 810.3333333333334C392.275008 811.3763328 377.8416640000001 809.9783338666666 363.7083306666667 805.7916672L313.1666773333334 790.8333333333334C259.3639893333333 774.94 217.1846613333334 731.8576661333334 203.0833322666667 678.3749973333333C174.4966677333334 570.0229973333334 201.3846656 439.662656 282.7499946666667 290.5000106666667L330.041664 337.7916586666668C263.673664 464.8316586666667 241.7050026666667 573.744 264.958336 662C273.406336 694.0213333333334 298.822336 719.8583338666667 331.2916693333333 729.4583338666666L381.833344 744.4166656C408.2226773333333 752.2033344 436.3426773333333 739.6320000000001 447.4999893333334 715.3333333333334L486.5833386666666 630.166656C495.948672 609.7293226666667 490.934656 585.6933333333334 474.166656 570.3333333333334L409.4166613333333 511.1666773333333C396.1046613333333 499.006656 387.6720000000001 482.4779946666667 385.6666666666667 464.7499946666667C384.1946666666667 451.9499946666667 384.5416746666666 433.1226666666667 395.2083413333333 403L449.2916693333333 457.0833280000001C449.3130026666667 457.211328 449.270336 457.3719893333334 449.2916693333333 457.4999893333334C449.5690026666667 459.910656 450.7476693333333 462.188672 452.6250026666667 463.916672L517.3749973333333 523.124992C554.7509973333333 557.3223253333333 565.763328 611.0519893333334 544.7499946666667 656.8333226666666L505.6666666666666 742C487.4106666666667 781.84 448.5083306666667 807.2043328 406.3333333333333 810.3333333333334zM459.3749973333333 286.124992C471.456896 269.5859840000001 483.5275306666666 255.5677653333334 496.166656 244.5833386666667L496.2083413333333 244.5833386666667C503.5376426666667 238.2382293333334 534.25568 208.7977173333334 576.041664 221L576.124992 221.0416640000001L663.3749973333333 247.1666773333334C686.0205226666667 253.9698560000001 710.2341546666667 245.8463573333334 723.8333439999999 227.3749973333334L779.2916693333333 152C795.0080853333334 130.5884160000001 792.2621866666666 101.4826240000001 772.6250026666667 83.2500053333333L734.2500053333333 47.5833386666667L734.2083413333332 47.5833386666667C709.6404906666667 24.7512106666667 673.1972266666667 15.838336 640.3333333333333 24.8333226666667C557.5529173333333 47.4808106666667 475.6752426666667 113.3565440000001 398.2916693333333 225.0416640000001L459.3749973333333 286.124992z"/>
            <glyph glyph-name="hide"
                   unicode="&#xF121;"
                   horiz-adv-x="1024"
                   d="M906.041664 810.9583338666666A32.0032 32.0032 0 0 1 884.041664 801.2916672L597.875008 515.124992C597.7723733333332 515.1703466666668 597.6860373333333 515.2464853333333 597.5833386666666 515.2916693333334L547.2500053333333 464.958336C547.3664426666667 464.9300053333333 547.4669866666666 464.8619306666667 547.5833386666666 464.8333226666667L367.1666773333333 284.4166613333334C367.1348693333333 284.5459626666667 367.0731306666667 284.6622506666668 367.041664 284.7916586666668L316.7083306666667 234.4583253333334C316.7584426666666 234.344384 316.8246826666667 234.2388480000001 316.875008 234.124992L94.7083328 11.958336A32.0032 32.0032 0 1 1 139.9583338666667 -33.2916693333333L352.2916693333333 179.0416640000001C391.3756160000001 134.7452586666667 448.4055466666667 106.6666666666667 512 106.6666666666667C629.632 106.6666666666667 725.3333333333333 202.368 725.3333333333333 320C725.3333333333333 383.582592 697.2509226666666 440.6192213333334 652.9583359999999 479.7083306666667L747.7916586666666 574.5416746666667C851.2953600000001 513.9387733333333 931.6013013333333 416.0673066666667 961.083328 301.4583253333334C964.7099946666668 286.9516586666668 977.7066666666666 277.3333333333334 992 277.3333333333334C994.56 277.3333333333334 997.315008 277.5633280000001 999.875008 278.4166613333334C1017.155008 282.6833280000001 1027.3966719999999 300.1416746666667 1022.916672 317.2083413333334C990.066752 445.2639786666668 905.8395093333334 553.1074773333333 795.2500053333333 622L929.2916693333332 756.0416661333334A32.0032 32.0032 0 0 1 906.041664 810.9583338666666zM511.7916586666666 704C273.4983253333333 704 58.6833344 541.4216746666667 1.0833333333333 317.2083413333334C-3.3966666666667 300.1416746666667 6.8449998933333 282.6833280000001 24.1250005333333 278.4166613333334C41.1916672 273.9366613333334 58.6499989333333 284.1783253333333 62.9166677333333 301.4583253333334C112.6233322666667 494.5249920000001 305.7116586666667 640 511.7916586666666 640C548.2716586666666 640 584.3099946666666 635.5383253333333 619.0833279999999 626.7916586666666L671.5833386666666 679.2500053333333C620.5966719999999 695.4633344 566.8316586666666 704 511.7916586666666 704zM512 533.3333333333334C394.368 533.3333333333334 298.6666666666667 437.632 298.6666666666667 320C298.6666666666667 315.7973333333335 299.0356693333333 311.6599893333335 299.2916693333333 307.4999893333334L378.7083306666667 386.916672C393.1509973333333 415.5460053333334 416.4539946666667 438.8490026666667 445.083328 453.2916693333333L524.4583253333333 532.7083306666667C520.3196586666666 532.9643306666667 516.2026666666666 533.3333333333334 512 533.3333333333334zM607.4166613333333 434.1666560000001C640.1922133333333 406.7984853333334 661.3333333333333 365.9582933333334 661.3333333333333 320C661.3333333333333 237.6746666666667 594.3466666666666 170.6666666666668 512 170.6666666666668C466.0417066666666 170.6666666666668 425.2015146666667 191.8017920000001 397.833344 224.5833386666667L458.4166613333333 285.1666773333334A64 64 0 0 1 512 256A64 64 0 0 1 546.8333226666666 373.5833386666667L607.4166613333333 434.1666560000001z"/>
            <glyph glyph-name="no-edit"
                   unicode="&#xF122;"
                   horiz-adv-x="1024"
                   d="M117 811A32.0032 32.0032 0 0 1 94.7083328 756.0416661333334L383.7916586666667 466.958336L190.2500010666667 273.4166613333334C181.2900010666667 264.4779946666668 174.6856661333333 253.2849920000001 171.2083328 241.124992L107.9166677333333 19.4583253333334C104.7379989333333 8.2796586666667 107.8283328 -3.7236693333332 116.0416661333333 -11.9583359999999C122.1216661333333 -18.0383360000001 130.304 -21.3333333333333 138.6666666666667 -21.3333333333333C141.6106666666667 -21.3333333333333 144.5570005333333 -20.915328 147.4583338666667 -20.0833279999999L369.124992 43.2083413333334C381.3063253333333 46.6856746666667 392.4566613333333 53.2900053333333 401.4166613333333 62.2500053333333L594.9583359999999 255.7916586666668L884.041664 -33.2916693333333A32.0032 32.0032 0 1 1 929.2916693333332 11.958336L139.9583338666667 801.2916672A32.0032 32.0032 0 0 1 117 811zM768 789.3333333333334C728.1066666666667 789.3333333333334 690.5979946666666 773.7859989333333 662.4166613333333 745.5833344L473.958336 557.124992L519.2083413333332 511.833344L621.0833279999999 613.6666666666667L741.7083306666666 493.041664L639.8333439999999 391.1666773333334L685.0833279999999 345.9166720000001L873.5833386666666 534.4166613333334C901.7860053333334 562.619328 917.3333333333331 600.1066666666667 917.3333333333331 640C917.3333333333331 679.8933333333333 901.764672 717.3806677333333 873.5833386666666 745.5833344C845.4020053333334 773.7860010666667 807.8933333333332 789.3333333333334 768 789.3333333333334zM768 725.3333333333334C790.8053333333334 725.3333333333334 812.2266666666666 716.44 828.3333333333333 700.3333333333334C844.4613333333333 684.2053333333333 853.3333333333333 662.784 853.3333333333333 640C853.3333333333333 617.216 844.4613333333333 595.7946666666667 828.3333333333333 579.6666666666667L786.9583359999999 538.2916693333334L666.3333333333333 658.9166720000001L707.7083306666666 700.3333333333334C723.7936639999999 716.4613333333334 745.1946666666665 725.3333333333334 768 725.3333333333334zM429.041664 421.7083306666667L549.7083306666666 301.0416640000001L356.124992 107.4583253333334C354.844992 106.1783253333333 353.2696746666666 105.2406613333333 351.5416746666666 104.7499946666667L185.2500010666667 57.2500053333333L232.7499946666667 223.5416746666667C233.2406613333333 225.2696746666667 234.1783253333334 226.886656 235.4583253333333 228.1666560000001L429.041664 421.7083306666667z"/>
            <glyph glyph-name="no-message"
                   unicode="&#xF123;"
                   horiz-adv-x="1024"
                   d="M906.041664 810.9583338666666A32.0032 32.0032 0 0 1 884.041664 801.2916672L94.7083328 11.958336A32.0032 32.0032 0 1 1 139.9583338666667 -33.2916693333333L197.3749994666667 24.124992C205.9994581333333 22.4134613333334 214.860736 21.3333333333334 224 21.3333333333334L800 21.3333333333334C876.3733333333332 21.3333333333334 938.6666666666666 83.6266666666668 938.6666666666666 160L938.6666666666666 565.3333333333334C938.6666666666666 619.2598826666667 907.2674133333333 665.860032 862.041664 688.7916672L929.2916693333332 756.0416661333334A32.0032 32.0032 0 0 1 906.041664 810.9583338666666zM224 704C147.6266666666667 704 85.3333333333333 641.7066666666667 85.3333333333333 565.3333333333334L85.3333333333333 160C85.3333333333333 140.3733333333333 89.3666666666667 121.6083413333335 96.8333333333333 104.5416746666667L149.5416661333333 157.2083413333334C149.3283328 158.0616746666667 149.3333333333333 159.1466666666668 149.3333333333333 160L149.3333333333333 469L351.7916586666667 359.4583253333334L399.1666773333333 406.8333226666668L149.3333333333333 541.7499946666667L149.3333333333333 565.3333333333334C149.3333333333333 606.5066666666667 182.8266666666667 640 224 640L632.3333333333333 640L696.3333333333333 704L224 704zM812.041664 638.7916586666666C847.4785919999999 632.9914666666666 874.6666666666666 602.3862186666667 874.6666666666666 565.3333333333334L874.6666666666666 541.7499946666667L527.4166613333333 354.1666560000001L812.041664 638.7916586666666zM874.6666666666666 469L874.6666666666666 160C874.6666666666666 118.8266666666667 841.1733333333333 85.3333333333334 800 85.3333333333334L258.5833386666667 85.3333333333334L469.2916693333333 296.0416640000001L496.8333226666667 281.1666773333334C501.526656 278.6066773333335 506.6666666666666 277.3333333333334 512 277.3333333333334C517.3333333333333 277.3333333333334 522.4733226666666 278.6066560000001 527.1666773333333 281.1666773333334L874.6666666666666 469z"/>
            <glyph glyph-name="no-reminders"
                   unicode="&#xF124;"
                   horiz-adv-x="1024"
                   d="M906.041664 810.9583338666666A32.0032 32.0032 0 0 1 884.041664 801.2916672L94.7083328 11.958336A32.0032 32.0032 0 1 1 139.9583338666667 -33.2916693333333L258.5833386666667 85.3333333333334L384 85.3333333333334C384 15.0215466666667 441.6882133333334 -42.6666666666666 512 -42.6666666666666C582.3117866666666 -42.6666666666666 640 15.0215466666667 640 85.3333333333334L821.3333333333333 85.3333333333334C846.9333333333334 85.3333333333334 870.5966719999999 98.3283413333334 884.2500053333333 119.875008C898.1166719999999 141.6350080000001 899.8483413333333 168.5233280000001 888.5416746666666 192.4166613333334L832 306.124992L832 469.3333333333334C832 523.2704853333333 818.6875093333333 574.759232 793.916672 620.6666666666667L929.2916693333332 756.0416661333334A32.0032 32.0032 0 0 1 906.041664 810.9583338666666zM512 789.3333333333334C506.88 789.3333333333334 501.7450026666667 789.1299989333334 496.6250026666667 788.9166677333333C325.7450026666667 781.0233322666667 192 636.995008 192 461.2083413333334L192 306.124992L135.0416661333333 191.7916586666668C127.1483328 174.9383253333334 125.8749994666667 156.1550080000001 131.2083328 138.875008L228.916672 236.5833386666667L252.5833386666667 284.3749973333334C254.9300053333334 288.8549973333334 256 293.76 256 298.6666666666668L256 461.2083413333334C256 602.6483413333333 363.0916693333334 718.5116672 499.6250026666667 725.1250005333334C560.4250026666666 727.8983338666667 618.4683306666666 709.9749994666668 666.041664 673.7083306666667L711.4583253333333 719.1666666666667C654.7116586666666 764.8199999999999 585.1733333333333 789.3333333333334 512 789.3333333333334zM746.2083413333332 572.958336C760.4550399999999 540.7664853333333 768 505.6027306666667 768 469.3333333333334L768 298.6666666666668C768 293.76 769.0699946666666 288.8549973333334 771.4166613333333 284.3749973333334L830.916672 164.5000106666667C833.0500053333333 160.0199893333334 831.3583359999999 156.1700053333334 830.2916693333333 154.2500053333333C829.2250026666667 152.5433386666667 826.4533333333334 149.3333333333334 821.3333333333333 149.3333333333334L322.5833386666667 149.3333333333334L746.2083413333332 572.958336zM448 85.3333333333334L576 85.3333333333334C576 49.6184533333334 547.71488 21.3333333333334 512 21.3333333333334C476.28512 21.3333333333334 448 49.6184533333334 448 85.3333333333334z"/>
            <glyph glyph-name="phone"
                   unicode="&#xF125;"
                   horiz-adv-x="1024"
                   d="M406.2083413333333 810.3749994666666C392.1654826666667 811.3966101333333 377.776448 809.9612821333333 363.6666666666667 805.7916672L313.1666773333334 790.8333333333334C259.354368 774.9185194666667 217.308544 732.2224 203.0833322666667 678.3333333333334C171.4977024 558.4881493333334 207.6304384 416.6338133333334 301.6666666666667 256.9583360000001C395.5707093333333 97.5031680000001 502.571072 -3.838656 623.4166613333333 -36.9166719999999C677.8376746666667 -51.8119466666667 736.5281066666666 -37.5831253333333 777.7499946666667 0.7083306666667L816.166656 36.3333333333334C859.153472 76.2454826666667 865.5629866666666 142.7225173333334 830.8333226666666 189.958336L775.3333333333333 265.3333333333334C745.5831893333334 305.7419946666667 693.14048 322.945792 644.916672 308.4583253333334L558.0833279999999 282.4583253333334C554.4384213333333 281.3940053333334 545.7157119999999 286.3581226666668 538.124992 292.9166720000001L538.0833279999999 292.9583360000001C524.5635626666666 304.7143040000001 505.831744 328.4754773333334 485.7916586666666 362.4583253333334L485.7916586666666 362.5000106666667C464.303232 398.9953493333334 455.1380053333333 422.86336 451.4583253333333 436.9583360000001C447.77696 451.0597973333333 448.6703573333333 452.775168 449.2083413333333 457.5416746666667C449.4880213333334 459.9200426666666 450.6180479999999 462.123776 452.5416746666666 463.875008L452.5833386666666 463.916672L517.3333333333333 523.124992C554.4297173333333 557.037504 565.6286506666667 611.2317226666667 544.7083306666666 656.8333226666666L505.6666666666666 742L505.6666666666666 742.0416661333334C487.2857386666667 782.1077952 448.3256746666667 807.3110144 406.2083413333333 810.3749994666666zM401.5833386666667 746.5416661333334C421.1714986666667 745.0781162666667 439.2092373333333 733.3286954666667 447.4583253333334 715.3333333333334L486.5416746666666 630.166656C496 609.549632 491.2569813333333 585.9568213333333 474.166656 570.3333333333334L409.4166613333333 511.1666773333333C396.1428693333333 499.0637653333333 387.6542933333334 482.5626026666666 385.6250026666667 464.7499946666667L385.6250026666667 464.7083306666667C385.0963626666667 460.0241706666667 383.8470826666667 442.604864 389.5416746666666 420.7916586666667C395.236288 398.9784746666667 406.9934293333333 370.1267840000001 430.6250026666667 330L430.6666666666667 330C452.7164586666667 292.602496 473.556032 264.1911253333334 496.124992 244.5833386666667L496.166656 244.5833386666667C503.4959786666666 238.2382293333334 534.2140159999999 208.7977173333334 576 221L576.124992 221.0416640000001L663.3333333333333 247.1666773333334C685.9788586666666 253.9698560000001 710.1924906666666 245.8463573333334 723.7916586666666 227.3749973333334L779.2916693333333 152C795.0080639999999 130.5884160000001 792.2621866666666 101.4826240000001 772.6250026666667 83.2500053333333L734.2083413333332 47.5833386666667C709.6394879999999 24.7512106666667 673.1555626666666 15.838336 640.2916693333333 24.8333226666667C542.5985919999999 51.5739946666666 445.9266133333333 138.1304960000001 356.8333226666667 289.4166613333334C267.6162346666667 440.9091840000001 239.7119573333333 566.2078506666667 264.958336 662C273.3037866666666 693.6149333333333 298.8736213333333 719.8584810666666 331.3333333333333 729.4583338666666L381.7916586666667 744.4166656C388.3645653333333 746.3590421333333 395.053952 747.0295168 401.5833386666667 746.5416661333334z"/>
            <glyph glyph-name="mail-error"
                   unicode="&#xF126;"
                   horiz-adv-x="1024"
                   d="M224 768C147.6266666666667 768 85.3333333333333 705.7066666666667 85.3333333333333 629.3333333333334L85.3333333333333 224C85.3333333333333 147.6266666666668 147.6266666666667 85.3333333333334 224 85.3333333333334L472.958336 85.3333333333334L511.3749973333333 149.3333333333334L224 149.3333333333334C182.8266666666667 149.3333333333334 149.3333333333333 182.8266666666667 149.3333333333333 224L149.3333333333333 533L496.7916586666666 345.1666773333334A32.0032 32.0032 0 0 1 527.2083413333332 345.1666773333334L874.6666666666666 533L874.6666666666666 257.0833280000001L927.3749973333335 169.1666773333334C934.6283306666666 186.0199893333334 938.6666666666666 204.5866666666668 938.6666666666666 224L938.6666666666666 629.3333333333334C938.6666666666666 705.7066666666667 876.3733333333332 768 800 768L224 768zM224 704L800 704C841.1733333333333 704 874.6666666666666 670.5066666666667 874.6666666666666 629.3333333333334L874.6666666666666 605.7499946666667L512 409.7083306666667L149.3333333333333 605.7499946666667L149.3333333333333 629.3333333333334C149.3333333333333 670.5066666666667 182.8266666666667 704 224 704zM725.3333333333333 362.6666666666668C702.848 362.6666666666668 682.020992 350.8686720000001 670.4583253333333 331.5833386666667L478.4583253333333 11.5833386666667C466.596992 -8.1926613333333 466.2756693333333 -32.8216746666667 477.6250026666667 -52.875008C488.9956693333334 -72.9283413333333 510.272 -85.3333333333333 533.3333333333333 -85.3333333333333L917.3333333333331 -85.3333333333333C940.3946666666666 -85.3333333333333 961.6709973333332 -72.9283413333333 973.041664 -52.875008C984.3909973333332 -32.8216746666667 984.0696746666669 -8.171328 972.2083413333332 11.5833386666667L780.2083413333332 331.5833386666667C768.6456746666665 350.8686720000001 747.8186666666667 362.6666666666668 725.3333333333333 362.6666666666668zM725.3333333333333 277.3333333333334C737.1093333333333 277.3333333333334 746.6666666666666 267.7760000000001 746.6666666666666 256L746.6666666666666 85.3333333333334C746.6666666666666 73.5573333333334 737.1093333333333 64 725.3333333333333 64C713.5573333333333 64 704 73.5573333333334 704 85.3333333333334L704 256C704 267.7760000000001 713.5573333333333 277.3333333333334 725.3333333333333 277.3333333333334zM725.3333333333333 26.6666666666667C740.0533333333333 26.6666666666667 752 14.72 752 0C752 -14.7199999999999 740.0533333333333 -26.6666666666666 725.3333333333333 -26.6666666666666C710.6133333333333 -26.6666666666666 698.6666666666666 -14.7199999999999 698.6666666666666 0C698.6666666666666 14.72 710.6133333333333 26.6666666666667 725.3333333333333 26.6666666666667z"/>
            <glyph glyph-name="basket"
                   unicode="&#xF127;"
                   horiz-adv-x="1024"
                   d="M333.6250026666667 768C267.2455466666667 768 209.7906261333333 720.4944405333333 197.3749994666667 655.2916693333334L170.0833322666667 512L138.6666666666667 512A32.0032 32.0032 0 0 1 107.2500010666667 474L176.0416661333333 112.7083306666667C188.4814592 47.5238186666668 245.9122133333333 0 312.2916693333333 0L711.7083306666666 0C778.0877866666666 0 835.5426986666666 47.5055573333334 847.9583359999999 112.7083306666667L916.7499946666666 474A32.0032 32.0032 0 0 1 885.3333333333333 512L853.916672 512L826.6250026666667 655.2916693333334C814.2093653333333 720.4944405333333 756.7544533333332 768 690.3749973333333 768L333.6250026666667 768zM333.6250026666667 704L690.3749973333333 704C726.438208 704 757.0082986666666 678.73856 763.7499946666667 643.3333333333334A32.0032 32.0032 0 0 1 763.7499946666667 643.2916693333334L788.7499946666667 512L235.2500053333333 512L260.2500053333333 643.2916693333334A32.0032 32.0032 0 0 1 260.2500053333333 643.3333333333334C266.9917013333333 678.7375573333334 297.561792 704 333.6250026666667 704zM177.3333333333333 448L191.2916672 448A32.0032 32.0032 0 0 1 201.6666666666667 448L822.4166613333333 448A32.0032 32.0032 0 0 1 832.6666666666666 448L846.6666666666666 448L785.0833279999999 124.6666666666668C778.3416319999999 89.2614400000001 747.7715413333333 64 711.7083306666666 64L312.2916693333333 64C276.2412373333333 64 245.691328 89.2629333333333 238.916672 124.6666666666668L238.916672 124.7083306666667L177.3333333333333 448zM329.7916586666667 384.4583253333334A32.0032 32.0032 0 0 1 298.875008 348.4583253333334L320.2083413333334 156.4583253333334A32.0032 32.0032 0 1 1 383.7916586666667 163.5416746666667L362.4583253333334 355.5416746666667A32.0032 32.0032 0 0 1 329.7916586666667 384.4583253333334zM458.166656 384.4583253333334A32.0032 32.0032 0 0 1 426.6666666666667 352L426.6666666666667 160A32.0032 32.0032 0 1 1 490.6666666666666 160L490.6666666666666 352A32.0032 32.0032 0 0 1 458.166656 384.4583253333334zM564.8333226666666 384.4583253333334A32.0032 32.0032 0 0 1 533.3333333333333 352L533.3333333333333 160A32.0032 32.0032 0 1 1 597.3333333333333 160L597.3333333333333 352A32.0032 32.0032 0 0 1 564.8333226666666 384.4583253333334zM693.2500053333333 384.4583253333334A32.0032 32.0032 0 0 1 661.5416746666666 355.5416746666667L640.2083413333332 163.5416746666667A32.0032 32.0032 0 1 1 703.7916586666666 156.4583253333334L725.124992 348.4583253333334A32.0032 32.0032 0 0 1 693.2500053333333 384.4583253333334z"/>
            <glyph glyph-name="add-basket"
                   unicode="&#xF128;"
                   horiz-adv-x="1024"
                   d="M512 767.7916672C485.4713813333333 767.7916672 458.9722026666666 757.7638592000001 438.916672 737.7083328L213.1666666666667 512L138.7083328 512C116.3723328 512 95.396 502.1326720000001 81.1666666666667 484.916672C66.9373333333333 467.7006720000001 61.1306666666667 445.2843306666668 65.3333333333333 423.3749973333334L124.5 112.7083306666667C136.9373333333333 47.4069973333334 194.2326677333333 0 260.7499946666667 0L512.9583359999999 0C500.3076693333333 19.7546666666667 490.0683306666666 41.2373333333334 482.7083306666667 64L260.7499946666667 64C224.931328 64 194.0523328 89.529664 187.3749994666667 124.7083306666667L128.2083328 435.3333333333334C127.3976661333333 439.6 129.2850005333333 442.6956586666667 130.4583338666667 444.124992C131.6530005333334 445.596992 134.3349994666667 448 138.7083328 448L220.6666666666667 448A32.0032 32.0032 0 0 1 231.124992 448L792.8333226666666 448A32.0032 32.0032 0 0 1 803.3333333333333 448L885.2916693333333 448C889.6650026666666 448 892.347008 445.596992 893.5416746666666 444.124992C894.7363413333334 442.6956586666667 896.6236586666666 439.6213333333334 895.7916586666666 435.3333333333334L886.875008 388.6666666666667C907.675008 376.4426666666667 926.750336 361.5656746666667 943.6250026666665 344.5416746666667L958.6666666666666 423.3749973333334C962.848 445.2843306666668 957.0626773333335 467.7006720000001 942.8333226666666 484.916672C928.6039893333332 502.1326720000001 907.6276693333332 512 885.2916693333333 512L810.8333226666666 512L585.124992 737.7083328C565.0694826666667 757.7638592000001 538.5286186666666 767.7916672 512 767.7916672zM512 704.2083328C522.013504 704.2083328 532.0478506666666 700.2854741333333 539.875008 692.4583338666666L720.3333333333333 512L303.6666666666667 512L484.166656 692.4583338666666C491.9938133333333 700.2854741333333 501.986496 704.2083328 512 704.2083328zM746.6666666666666 384C617.0666666666666 384 512 278.9333333333334 512 149.3333333333334C512 19.7333333333334 617.0666666666666 -85.3333333333333 746.6666666666666 -85.3333333333333C876.2666666666667 -85.3333333333333 981.3333333333331 19.7333333333334 981.3333333333331 149.3333333333334C981.3333333333331 278.9333333333334 876.2666666666667 384 746.6666666666666 384zM288.4166613333333 363.124992A32.0032 32.0032 0 0 1 256.083328 328.3749973333334L266.7499946666667 179.0416640000001A32.0032 32.0032 0 1 1 330.5833386666667 183.6250026666667L319.916672 332.9583360000001A32.0032 32.0032 0 0 1 288.4166613333333 363.124992zM436.8333226666667 363.124992A32.0032 32.0032 0 0 1 405.3333333333333 330.6666666666668L405.3333333333333 181.3333333333334A32.0032 32.0032 0 1 1 469.3333333333333 181.3333333333334L469.3333333333333 330.6666666666668A32.0032 32.0032 0 0 1 436.8333226666667 363.124992zM746.6666666666666 320C758.4426666666666 320 768 310.4426666666667 768 298.6666666666668L768 170.6666666666668L896 170.6666666666668C907.776 170.6666666666668 917.3333333333331 161.1093333333333 917.3333333333331 149.3333333333334C917.3333333333331 137.5573333333334 907.776 128 896 128L768 128L768 0C768 -11.776 758.4426666666666 -21.3333333333333 746.6666666666666 -21.3333333333333C734.8906666666667 -21.3333333333333 725.3333333333333 -11.776 725.3333333333333 0L725.3333333333333 128L597.3333333333333 128C585.5573333333333 128 576 137.5573333333334 576 149.3333333333334C576 161.1093333333333 585.5573333333333 170.6666666666668 597.3333333333333 170.6666666666668L725.3333333333333 170.6666666666668L725.3333333333333 298.6666666666668C725.3333333333333 310.4426666666667 734.8906666666667 320 746.6666666666666 320z"/>
            <glyph glyph-name="lock"
                   unicode="&#xF129;"
                   horiz-adv-x="1024"
                   d="M512 874.6666666666666C394.5637973333333 874.6666666666666 298.6666666666667 778.7695424 298.6666666666667 661.3333333333334L298.6666666666667 501.3333333333334L299.5833386666667 501.3333333333334C221.1604053333333 438.7247786666667 170.6666666666667 342.525888 170.6666666666667 234.6666666666668C170.6666666666667 46.532544 323.865728 -106.6666666666666 512 -106.6666666666666C700.1342719999999 -106.6666666666666 853.3333333333333 46.532544 853.3333333333333 234.6666666666668C853.3333333333333 342.525888 802.8395946666666 438.7247786666667 724.4166613333333 501.3333333333334L725.3333333333333 501.3333333333334L725.3333333333333 661.3333333333334C725.3333333333333 778.7695424 629.4362026666666 874.6666666666666 512 874.6666666666666zM512 810.6666666666666C594.8411306666667 810.6666666666666 661.3333333333333 744.1744576 661.3333333333333 661.3333333333334L661.3333333333333 541.083328C616.1476693333333 563.2088106666667 565.5872853333333 576 512 576C458.4127146666666 576 407.8523306666667 563.2088106666667 362.6666666666667 541.083328L362.6666666666667 661.3333333333334C362.6666666666667 744.1744576 429.1588693333333 810.6666666666666 512 810.6666666666666zM512 512C665.5461333333333 512 789.3333333333333 388.2126933333334 789.3333333333333 234.6666666666668C789.3333333333333 81.12064 665.5461333333333 -42.6666666666666 512 -42.6666666666666C358.4538666666666 -42.6666666666666 234.6666666666667 81.12064 234.6666666666667 234.6666666666668C234.6666666666667 388.2126933333334 358.4538666666666 512 512 512zM512 384A106.6666666666667 106.6666666666667 0 0 1 469.3333333333333 179.7083306666667L469.3333333333333 106.6666666666667C469.3333333333333 83.0933333333335 488.4266666666666 64 512 64C535.5733333333333 64 554.6666666666666 83.0933333333335 554.6666666666666 106.6666666666667L554.6666666666666 179.6250026666667A106.6666666666667 106.6666666666667 0 0 1 512 384z"/>
            <glyph glyph-name="unlock"
                   unicode="&#xF12A;"
                   horiz-adv-x="1024"
                   d="M512 874.6666666666666C394.5637973333333 874.6666666666666 298.6666666666667 778.7695424 298.6666666666667 661.3333333333334L298.6666666666667 501.3333333333334A32.0032 32.0032 0 0 1 298.7083306666667 500.6666666666667C220.7760213333334 438.0413226666667 170.6666666666667 342.1322666666668 170.6666666666667 234.6666666666668C170.6666666666667 46.532544 323.865728 -106.6666666666666 512 -106.6666666666666C700.1342719999999 -106.6666666666666 853.3333333333333 46.532544 853.3333333333333 234.6666666666668C853.3333333333333 422.8007893333334 700.1342719999999 576 512 576C458.4127146666666 576 407.8523306666667 563.2088106666667 362.6666666666667 541.083328L362.6666666666667 661.3333333333334C362.6666666666667 744.1744576 429.1588693333333 810.6666666666666 512 810.6666666666666C594.8411306666667 810.6666666666666 661.3333333333333 744.1744576 661.3333333333333 661.3333333333334A32.0032 32.0032 0 1 1 725.3333333333333 661.3333333333334C725.3333333333333 778.7695424 629.4362026666666 874.6666666666666 512 874.6666666666666zM512 512C665.5461333333333 512 789.3333333333333 388.2126933333334 789.3333333333333 234.6666666666668C789.3333333333333 81.12064 665.5461333333333 -42.6666666666666 512 -42.6666666666666C358.4538666666666 -42.6666666666666 234.6666666666667 81.12064 234.6666666666667 234.6666666666668C234.6666666666667 388.2126933333334 358.4538666666666 512 512 512zM512 384A106.6666666666667 106.6666666666667 0 0 1 469.3333333333333 179.7083306666667L469.3333333333333 106.6666666666667C469.3333333333333 83.0933333333335 488.4266666666666 64 512 64C535.5733333333333 64 554.6666666666666 83.0933333333335 554.6666666666666 106.6666666666667L554.6666666666666 179.6250026666667A106.6666666666667 106.6666666666667 0 0 1 512 384z"/>
            <glyph glyph-name="link"
                   unicode="&#xF12B;"
                   horiz-adv-x="1024"
                   d="M277.3333333333333 618.6666666666667C148.1054208 618.6666666666667 42.6666666666667 513.2279040000001 42.6666666666667 384C42.6666666666667 254.7720960000001 148.1054208 149.3333333333334 277.3333333333333 149.3333333333334L373.3333333333333 149.3333333333334A32.0032 32.0032 0 1 1 373.3333333333333 213.3333333333334L277.3333333333333 213.3333333333334C182.6892458666667 213.3333333333334 106.6666666666667 289.355904 106.6666666666667 384C106.6666666666667 478.644096 182.6892458666667 554.6666666666667 277.3333333333333 554.6666666666667L373.3333333333333 554.6666666666667A32.0032 32.0032 0 1 1 373.3333333333333 618.6666666666667L277.3333333333333 618.6666666666667zM650.6666666666666 618.6666666666667A32.0032 32.0032 0 1 1 650.6666666666666 554.6666666666667L746.6666666666666 554.6666666666667C841.3107626666666 554.6666666666667 917.3333333333331 478.644096 917.3333333333331 384C917.3333333333331 289.355904 841.3107626666666 213.3333333333334 746.6666666666666 213.3333333333334L650.6666666666666 213.3333333333334A32.0032 32.0032 0 1 1 650.6666666666666 149.3333333333334L746.6666666666666 149.3333333333334C875.8945706666666 149.3333333333334 981.3333333333331 254.7720960000001 981.3333333333331 384C981.3333333333331 513.2279040000001 875.8945706666666 618.6666666666667 746.6666666666666 618.6666666666667L650.6666666666666 618.6666666666667zM245.3333333333333 416A32.0032 32.0032 0 1 1 245.3333333333333 352L778.6666666666666 352A32.0032 32.0032 0 1 1 778.6666666666666 416L245.3333333333333 416z"/>
            <glyph glyph-name="external-link"
                   unicode="&#xF12C;"
                   horiz-adv-x="1024"
                   d="M884.7083306666666 789.6250005333334A32.0032 32.0032 0 0 1 881.2500053333333 789.3333333333334L586.6666666666666 789.3333333333334A32.0032 32.0032 0 1 1 586.6666666666666 725.3333333333334L808.0833279999999 725.3333333333334L478.7083306666667 395.9583360000001A32.0032 32.0032 0 1 1 523.9583359999999 350.7083306666667L853.3333333333333 680.083328L853.3333333333333 458.6666666666667A32.0032 32.0032 0 1 1 917.3333333333331 458.6666666666667L917.3333333333331 753.2916672A32.0032 32.0032 0 0 1 884.7083306666666 789.6250005333334zM266.6666666666667 725.3333333333334C178.6773141333334 725.3333333333334 106.6666666666667 653.322688 106.6666666666667 565.3333333333334L106.6666666666667 138.6666666666668C106.6666666666667 50.677312 178.6773141333334 -21.3333333333333 266.6666666666667 -21.3333333333333L693.3333333333333 -21.3333333333333C781.322688 -21.3333333333333 853.3333333333333 50.677312 853.3333333333333 138.6666666666668L853.3333333333333 352A32.0032 32.0032 0 1 1 789.3333333333333 352L789.3333333333333 138.6666666666668C789.3333333333333 85.2586880000001 746.7413119999999 42.6666666666667 693.3333333333333 42.6666666666667L266.6666666666667 42.6666666666667C213.2586858666667 42.6666666666667 170.6666666666667 85.2586880000001 170.6666666666667 138.6666666666668L170.6666666666667 565.3333333333334C170.6666666666667 618.741312 213.2586858666667 661.3333333333334 266.6666666666667 661.3333333333334L480 661.3333333333334A32.0032 32.0032 0 1 1 480 725.3333333333334L266.6666666666667 725.3333333333334z"/>
            <glyph glyph-name="chain"
                   unicode="&#xF12D;"
                   horiz-adv-x="1024"
                   d="M744.9583359999999 769.5416661333334C705.7855573333333 769.5416661333334 666.6171946666666 754.7005333333334 636.916672 725L528.2083413333332 616.2916693333334C476.8179413333333 564.9012906666667 472.6370346666666 486.4558506666667 510.166656 427.4166613333334L468.5416746666666 385.7916586666667C409.501888 423.3255253333334 331.0587733333333 419.1837653333334 279.6666666666667 367.7916586666668L170.9583338666667 259.0833280000001C111.5572693333333 199.6822613333334 111.5572693333333 102.3594026666667 170.9583338666667 42.958336C230.3745493333334 -16.4310186666667 327.6856746666666 -16.4393173333333 387.083328 42.958336L495.7916586666666 151.6666666666668C547.1837653333333 203.0587733333334 551.3255253333333 281.501888 513.7916586666666 340.5416746666667L555.4166613333333 382.1666560000001C614.4622079999999 344.6439466666667 692.9042346666666 348.8209066666667 744.2916693333333 400.2083413333334L853 508.916672C912.4010666666666 568.3177386666666 912.4010666666666 665.5989333333333 853 725C823.2994773333332 754.7005333333334 784.1311146666667 769.5416661333334 744.9583359999999 769.5416661333334zM744.9583359999999 705.9583338666666C767.6202239999999 705.9583338666666 790.2825386666666 697.2174741333333 807.7499946666667 679.7499946666667C842.6849279999999 644.8150613333333 842.6849279999999 589.1016106666667 807.7499946666667 554.1666560000001L699.041664 445.4583253333334C672.1482666666666 418.564928 633.1491199999999 412.822016 600.5833386666666 427.3333333333334L670.5000106666666 497.2500053333333A32.0032 32.0032 0 1 1 625.2500053333333 542.5000106666666L555.3333333333333 472.5833386666667C540.8263466666666 505.143488 546.567552 544.1508906666667 573.4583253333333 571.0416640000001L682.166656 679.7499946666667C699.6341333333332 697.217472 722.296448 705.9583338666666 744.9583359999999 705.9583338666666zM387.7499946666667 348.7083306666667C399.9650773333334 348.7083306666667 411.973376 345.6999253333334 423.3749973333334 340.6250026666667L353.4999893333334 270.7499946666667A32.0032 32.0032 0 1 1 398.7499946666667 225.4999893333334L468.6250026666667 295.3749973333334C483.1151359999999 262.8206720000001 477.4243413333334 223.8410026666667 450.5416746666666 196.958336L341.7916586666667 88.2083413333334C306.853312 53.2699946666667 251.1707733333334 53.3023573333334 216.2083413333334 88.2500053333333C181.2990528 123.18656 181.2819456 178.86528 216.2083413333334 213.7916586666668L324.958336 322.5416746666667C342.425792 340.0091306666667 365.0881066666667 348.7083306666667 387.7499946666667 348.7083306666667z"/>
            <glyph glyph-name="lifebuoy"
                   unicode="&#xF12E;"
                   horiz-adv-x="1024"
                   d="M512 810.6666666666666C432.335744 810.6666368 352.7984853333333 788.2361109333333 283.1666773333334 743.8749994666666C279.0100053333333 744.5702826666667 274.8317013333333 745.0833322666667 270.6250026666667 745.0833322666667C251.4505386666667 745.0833322666667 232.2771626666667 737.8605034666666 217.833344 723.4166656L172.5833344 678.166656C154.970656 660.5540053333334 148.2609450666667 635.9362133333334 152.1250005333333 612.8333226666666C63.4008426666667 473.5524693333334 63.3988522666667 294.4298240000001 152.1250005333333 155.1666773333334C148.2609450666667 132.0637866666666 154.970656 107.4459946666666 172.5833344 89.833344L217.833344 44.5833386666667C235.4459946666667 26.9706453333333 260.0637866666667 20.2609493333333 283.1666773333334 24.124992C422.4475306666667 -64.599168 601.570176 -64.601152 740.8333226666666 24.124992C763.9362133333334 20.2609493333333 788.5540053333334 26.9706453333333 806.166656 44.5833386666667L851.4166613333333 89.833344C869.0293546666667 107.4459946666666 875.7390506666667 132.0637866666666 871.875008 155.1666773333334C960.599168 294.4475306666667 960.601152 473.5701760000001 871.875008 612.8333226666666C875.7390506666667 635.9362133333334 869.0293546666667 660.5540053333334 851.4166613333333 678.166656L806.166656 723.4166656C791.7228586666666 737.8605034666666 772.5494613333333 745.0833322666667 753.3749973333333 745.0833322666667C749.1682986666666 745.0833344 744.9899946666666 744.5702826666667 740.8333226666666 743.8749994666666C671.1939199999999 788.2351722666667 591.664256 810.6666965333334 512 810.6666666666666zM512 746.6666666666667C570.389312 746.6669162666667 628.6821973333333 732.4294592 681.5833386666666 704.4166656L584.2916693333333 607.124992C561.4851199999999 614.5542186666667 537.2266453333333 618.6666666666667 512 618.6666666666667C486.7733546666666 618.6666666666667 462.51488 614.5542186666667 439.7083306666667 607.124992L342.4166613333333 704.4166656C395.3099946666667 732.4289493333333 453.610688 746.6664170666667 512 746.6666666666667zM270.6250026666667 681.4999893333334C273.2870826666667 681.4999893333334 275.949184 680.3841706666667 278.166656 678.166656L379.1666773333333 577.1666773333334C355.5856 560.883392 335.1165866666667 540.4144 318.8333226666666 516.8333226666667L217.833344 617.833344C213.3983146666666 622.2683306666667 213.3983146666666 628.481664 217.833344 632.9166720000001L263.083328 678.166656C265.3008426666667 680.3841706666667 267.9629226666667 681.4999893333334 270.6250026666667 681.4999893333334zM753.3749973333333 681.4999893333334C756.0370773333334 681.4999893333334 758.6991573333332 680.3841706666667 760.916672 678.166656L806.166656 632.9166720000001C810.6016639999999 628.481664 810.6016639999999 622.2683093333334 806.166656 617.833344L705.1666773333333 516.8333226666667C688.8834133333332 540.4144 668.4143999999999 560.883392 644.8333226666666 577.1666773333334L745.8333439999999 678.166656C748.0508159999999 680.3841706666667 750.7129173333333 681.4999893333334 753.3749973333333 681.4999893333334zM512 554.6666666666667C606.635712 554.6666666666667 682.6666666666666 478.6356480000001 682.6666666666666 384C682.6666666666666 289.3643520000001 606.635712 213.3333333333334 512 213.3333333333334C417.364288 213.3333333333334 341.3333333333333 289.3643520000001 341.3333333333333 384C341.3333333333333 478.6356480000001 417.364288 554.6666666666667 512 554.6666666666667zM191.5833344 553.5833386666667L288.875008 456.2916693333333C281.4457813333334 433.4851413333334 277.3333333333333 409.226624 277.3333333333333 384C277.3333333333333 358.7733760000001 281.4457813333334 334.5148586666667 288.875008 311.7083306666667L191.5833344 214.4166613333334C135.5587690666667 320.2033280000001 135.5577493333333 447.7810346666667 191.5833344 553.5833386666667zM832.4166613333333 553.5833386666667C888.4412373333332 447.7966720000001 888.4422613333332 320.2189653333334 832.4166613333333 214.4166613333334L735.124992 311.7083306666667C742.5542186666667 334.5148586666667 746.6666666666666 358.7733760000001 746.6666666666666 384C746.6666666666666 409.226624 742.5542186666667 433.4851413333334 735.124992 456.2916693333333L832.4166613333333 553.5833386666667zM318.8333226666666 251.1666773333334C335.1165866666667 227.5856000000001 355.5856 207.1166080000001 379.1666773333333 190.8333226666667L278.166656 89.833344C273.7316693333334 85.3983360000001 267.518336 85.3983360000001 263.083328 89.833344L217.833344 135.0833280000001C213.3983146666666 139.518336 213.3983146666666 145.7316906666667 217.833344 150.1666560000001L318.8333226666666 251.1666773333334zM705.1666773333333 251.1666773333334L806.166656 150.1666560000001C810.6016639999999 145.7316906666667 810.6016639999999 139.518336 806.166656 135.0833280000001L760.916672 89.833344C756.481664 85.3983360000001 750.2683093333333 85.3983360000001 745.8333439999999 89.833344L644.8333226666666 190.8333226666667C668.4143999999999 207.1166080000001 688.8834133333332 227.5856000000001 705.1666773333333 251.1666773333334zM439.7083306666667 160.875008C462.51488 153.4457813333334 486.7733546666666 149.3333333333334 512 149.3333333333334C537.2266453333333 149.3333333333334 561.4851199999999 153.4457813333334 584.2916693333333 160.875008L681.5833386666666 63.5833386666667C575.796672 7.5587626666668 448.2189653333333 7.5577386666668 342.4166613333333 63.5833386666667L439.7083306666667 160.875008z"/>
            <glyph glyph-name="workspace"
                   unicode="&#xF12F;"
                   horiz-adv-x="1024"
                   d="M202.6666666666667 768C149.7386666666667 768 106.6666666666667 724.928 106.6666666666667 672L106.6666666666667 266.6666666666668C106.6666666666667 213.7386666666666 149.7386666666667 170.6666666666668 202.6666666666667 170.6666666666668L230.5000106666667 170.6666666666668C240.6760106666667 193.0240000000001 255.052672 213.4160000000001 273.2500053333333 230.3333333333334C274.7860053333333 231.7626666666668 276.4406613333333 233.216 278.083328 234.6666666666668L202.6666666666667 234.6666666666668C185.024 234.6666666666668 170.6666666666667 249.024 170.6666666666667 266.6666666666668L170.6666666666667 672C170.6666666666667 689.6426666666666 185.024 704 202.6666666666667 704L821.3333333333333 704C838.9759999999999 704 853.3333333333333 689.6426666666666 853.3333333333333 672L853.3333333333333 266.6666666666668C853.3333333333333 249.024 838.9759999999999 234.6666666666668 821.3333333333333 234.6666666666668L745.916672 234.6666666666668C747.5380053333333 233.216 749.2139946666666 231.7626666666668 750.7499946666667 230.3333333333334C768.947328 213.4373333333333 783.3239893333332 193.0240000000001 793.4999893333334 170.6666666666668L821.3333333333333 170.6666666666668C874.2613333333334 170.6666666666668 917.3333333333331 213.7386666666666 917.3333333333331 266.6666666666668L917.3333333333331 672C917.3333333333331 724.928 874.2613333333334 768 821.3333333333333 768L202.6666666666667 768zM512.2083413333332 618.6666666666667C430.1128106666667 618.6666666666667 362.875008 551.4288 362.875008 469.3333333333334C362.875008 387.2378666666667 430.1128106666667 320 512.2083413333332 320C594.3038506666667 320 661.5416746666666 387.2378666666667 661.5416746666666 469.3333333333334C661.5416746666666 551.4288 594.3038506666667 618.6666666666667 512.2083413333332 618.6666666666667zM512.2083413333332 554.6666666666667C559.7157119999999 554.6666666666667 597.5416746666666 516.8406826666667 597.5416746666666 469.3333333333334C597.5416746666666 421.825984 559.7157119999999 384 512.2083413333332 384C464.7009493333333 384 426.875008 421.825984 426.875008 469.3333333333334C426.875008 516.8406826666667 464.7009493333333 554.6666666666667 512.2083413333332 554.6666666666667zM512 277.3333333333334C394.4016426666667 277.3333333333334 337.6760533333333 231.9526613333334 302.2916693333333 199.0833280000001C272.2900266666667 171.2207573333334 256 132.2166186666667 256 92.0833280000001L256 85.4583253333334C256 38.2990933333334 295.4822613333334 0 342.5416746666666 0L681.4999893333334 0C728.5652053333333 0 768.041664 38.2922453333334 768.041664 85.4583253333334L768.041664 92.0833280000001A32.0032 32.0032 0 0 1 765.4166613333333 104.7083306666667C762.290048 140.1411413333334 748.479104 174.2355200000001 721.7499946666667 199.0833280000001A32.0032 32.0032 0 0 1 721.7083306666666 199.0833280000001C686.3249493333333 231.9526613333334 629.5983573333333 277.3333333333334 512 277.3333333333334zM512 213.3333333333334C615.1589759999999 213.3333333333334 643.9190613333333 184.0216746666668 678.166656 152.2083413333334C694.8556373333332 136.6939946666667 704 114.9842346666667 704 92.0833280000001A32.0032 32.0032 0 0 1 704.041664 91.2916693333334L704.041664 85.4583253333334C704.0406613333332 73.6164480000001 694.6374826666666 64 681.4999893333334 64L342.5416746666666 64C329.3557333333333 64 320 73.566912 320 85.4583253333334L320 92.0833280000001C320 115.0113920000001 329.157632 136.7215786666668 345.833344 152.2083413333334C380.0809386666666 184.0216746666668 408.841024 213.3333333333334 512 213.3333333333334z"/>
            <glyph glyph-name="add"
                   unicode="&#xF130;"
                   horiz-adv-x="1024"
                   d="M512 810.6666666666666C276.737408 810.6666666666666 85.3333333333333 619.2624213333334 85.3333333333333 384C85.3333333333333 148.7375786666667 276.737408 -42.6666666666666 512 -42.6666666666666C747.262592 -42.6666666666666 938.6666666666666 148.7375786666667 938.6666666666666 384C938.6666666666666 619.2624213333334 747.262592 810.6666666666666 512 810.6666666666666zM512 746.6666666666667C712.6744533333333 746.6666666666667 874.6666666666666 584.6743253333334 874.6666666666666 384C874.6666666666666 183.3256746666666 712.6744533333333 21.3333333333334 512 21.3333333333334C311.3255466666667 21.3333333333334 149.3333333333333 183.3256746666666 149.3333333333333 384C149.3333333333333 584.6743253333334 311.3255466666667 746.6666666666667 512 746.6666666666667zM511.4999893333334 597.7916586666666A32.0032 32.0032 0 0 1 480 565.3333333333334L480 416L330.6666666666667 416A32.0032 32.0032 0 1 1 330.6666666666667 352L480 352L480 202.6666666666668A32.0032 32.0032 0 1 1 544 202.6666666666668L544 352L693.3333333333333 352A32.0032 32.0032 0 1 1 693.3333333333333 416L544 416L544 565.3333333333334A32.0032 32.0032 0 0 1 511.4999893333334 597.7916586666666z"/>
            <glyph glyph-name="add-tag"
                   unicode="&#xF131;"
                   horiz-adv-x="1024"
                   d="M597.3333333333333 810.6666666666666C563.1146666666666 810.6666666666666 530.9826773333333 797.3373333333334 506.8333226666667 773.1666666666666L122.8333333333333 389.1666773333334C72.9346666666667 339.2680106666667 72.9346666666667 258.0653440000001 122.8333333333333 208.1666560000001L336.166656 -5.1666773333333C360.3160106666667 -29.3586773333333 392.448 -42.6666666666666 426.6666666666667 -42.6666666666666C460.672 -42.6666666666666 492.643328 -29.4980053333334 516.7499946666667 -5.5833386666666C504.227328 12.9339946666668 494.161664 33.2296746666666 486.3749973333333 54.5416746666667L471.9166719999999 40.0833280000001C447.7460053333333 15.9126613333333 405.587328 15.9126613333333 381.4166613333333 40.0833280000001L168.0833322666667 253.4166613333334C143.1446656 278.3766613333334 143.1446656 318.9566720000001 168.0833322666667 343.9166720000001L552.0833279999999 727.9166677333333C564.1579946666666 740.0126656 580.2239999999999 746.6666666666667 597.3333333333333 746.6666666666667L832 746.6666666666667C855.5306666666667 746.6666666666667 874.6666666666666 727.5306666666667 874.6666666666666 704L874.6666666666666 469.3749973333333C874.6666666666666 452.265664 867.9913386666667 436.1793280000001 855.916672 424.0833280000001L841.4583253333333 409.6250026666667C862.7916586666666 401.8383360000001 883.044672 391.772672 901.5833386666666 379.2500053333333C925.4766719999998 403.3780053333334 938.6666666666666 435.369664 938.6666666666666 469.3749973333333L938.6666666666666 704C938.6666666666666 762.816 890.8159999999999 810.6666666666666 832 810.6666666666666L597.3333333333333 810.6666666666666zM725.3333333333333 661.3333333333334C689.984 661.3333333333334 661.3333333333333 632.6826666666667 661.3333333333333 597.3333333333334C661.3333333333333 561.984 689.984 533.3333333333334 725.3333333333333 533.3333333333334C760.6826666666666 533.3333333333334 789.3333333333333 561.984 789.3333333333333 597.3333333333334C789.3333333333333 632.6826666666667 760.6826666666666 661.3333333333334 725.3333333333333 661.3333333333334zM746.6666666666666 384C617.088 384 512 278.9120000000001 512 149.3333333333334C512 19.7546666666667 617.088 -85.3333333333333 746.6666666666666 -85.3333333333333C876.2453333333333 -85.3333333333333 981.3333333333331 19.7546666666667 981.3333333333331 149.3333333333334C981.3333333333331 278.9120000000001 876.2453333333333 384 746.6666666666666 384zM746.6666666666666 320C758.4213333333333 320 768 310.4213333333334 768 298.6666666666668L768 170.6666666666668L896 170.6666666666668C907.7546666666668 170.6666666666668 917.3333333333331 161.0880000000001 917.3333333333331 149.3333333333334C917.3333333333331 137.5786666666667 907.7546666666668 128 896 128L768 128L768 0C768 -11.7546666666667 758.4213333333333 -21.3333333333333 746.6666666666666 -21.3333333333333C734.9119999999999 -21.3333333333333 725.3333333333333 -11.7546666666667 725.3333333333333 0L725.3333333333333 128L597.3333333333333 128C585.5786666666667 128 576 137.5786666666667 576 149.3333333333334C576 161.0880000000001 585.5786666666667 170.6666666666668 597.3333333333333 170.6666666666668L725.3333333333333 170.6666666666668L725.3333333333333 298.6666666666668C725.3333333333333 310.4213333333334 734.9119999999999 320 746.6666666666666 320z"/>
            <glyph glyph-name="box-move-right"
                   unicode="&#xF132;"
                   horiz-adv-x="1024"
                   d="M245.3333333333333 768C180.9114858666667 768 128 715.0885141333333 128 650.6666666666667L128 117.3333333333334C128 52.9114880000001 180.9114858666667 0 245.3333333333333 0L778.6666666666666 0C843.0885119999999 0 896 52.9114880000001 896 117.3333333333334L896 202.6666666666668A32.0032 32.0032 0 1 1 832 202.6666666666668L832 117.3333333333334C832 87.504512 808.495488 64 778.6666666666666 64L245.3333333333333 64C215.504512 64 192 87.504512 192 117.3333333333334L192 650.6666666666667C192 680.495488 215.504512 704 245.3333333333333 704L778.6666666666666 704C808.495488 704 832 680.495488 832 650.6666666666667L832 565.3333333333334A32.0032 32.0032 0 1 1 896 565.3333333333334L896 650.6666666666667C896 715.0885141333333 843.0885119999999 768 778.6666666666666 768L245.3333333333333 768zM735.6666666666666 544.3333333333334A32.0032 32.0032 0 0 1 713.3749973333333 489.3749973333333L786.7499946666667 416L394.6666666666667 416A32.0032 32.0032 0 1 1 394.6666666666667 352L786.7499946666667 352L713.3749973333333 278.6250026666667A32.0032 32.0032 0 1 1 758.6250026666667 233.3749973333334L886.6250026666667 361.3749973333334A32.0032 32.0032 0 0 1 886.6250026666667 406.6250026666667L758.6250026666667 534.6250026666667A32.0032 32.0032 0 0 1 735.6666666666666 544.3333333333334z"/>
            <glyph glyph-name="box-move-left"
                   unicode="&#xF133;"
                   horiz-adv-x="1024"
                   d="M245.3333333333333 768C180.9114858666667 768 128 715.0885141333333 128 650.6666666666667L128 565.3333333333334A32.0032 32.0032 0 1 1 192 565.3333333333334L192 650.6666666666667C192 680.495488 215.504512 704 245.3333333333333 704L778.6666666666666 704C808.495488 704 832 680.495488 832 650.6666666666667L832 117.3333333333334C832 87.504512 808.495488 64 778.6666666666666 64L245.3333333333333 64C215.504512 64 192 87.504512 192 117.3333333333334L192 202.6666666666668A32.0032 32.0032 0 1 1 128 202.6666666666668L128 117.3333333333334C128 52.9114880000001 180.9114858666667 0 245.3333333333333 0L778.6666666666666 0C843.0885119999999 0 896 52.9114880000001 896 117.3333333333334L896 650.6666666666667C896 715.0885141333333 843.0885119999999 768 778.6666666666666 768L245.3333333333333 768zM287.3749973333334 544.2916693333334A32.0032 32.0032 0 0 1 265.3749973333334 534.6250026666667L137.3749994666667 406.6250026666667A32.0032 32.0032 0 0 1 137.3749994666667 361.3749973333334L265.3749973333334 233.3749973333334A32.0032 32.0032 0 1 1 310.6250026666667 278.6250026666667L237.2500053333333 352L629.3333333333333 352A32.0032 32.0032 0 1 1 629.3333333333333 416L237.2500053333333 416L310.6250026666667 489.3749973333333A32.0032 32.0032 0 0 1 287.3749973333334 544.2916693333334z"/>
            <glyph glyph-name="add-user-male"
                   unicode="&#xF134;"
                   horiz-adv-x="1024"
                   d="M362.6666666666667 853.3333333333334C245.224896 853.3333333333334 149.3333333333333 757.4416853333333 149.3333333333333 640C149.3333333333333 522.5583146666668 245.224896 426.6666666666667 362.6666666666667 426.6666666666667C480.1084373333333 426.6666666666667 576 522.5583146666668 576 640C576 757.4416853333333 480.1084373333333 853.3333333333334 362.6666666666667 853.3333333333334zM362.6666666666667 789.3333333333334C445.5202986666667 789.3333333333334 512 722.8535786666666 512 640C512 557.1464106666667 445.5202986666667 490.6666666666667 362.6666666666667 490.6666666666667C279.8130346666667 490.6666666666667 213.3333333333333 557.1464106666667 213.3333333333333 640C213.3333333333333 722.8535786666666 279.8130346666667 789.3333333333334 362.6666666666667 789.3333333333334zM746.6666666666666 384C617.0666666666666 384 512 278.9333333333334 512 149.3333333333334C512 19.7333333333334 617.0666666666666 -85.3333333333333 746.6666666666666 -85.3333333333333C876.2666666666667 -85.3333333333333 981.3333333333331 19.7333333333334 981.3333333333331 149.3333333333334C981.3333333333331 278.9333333333334 876.2666666666667 384 746.6666666666666 384zM132.7499989333333 341.3333333333334C88.9739989333333 341.3333333333334 53.3333333333333 303.2636586666668 53.3333333333333 256.4583253333334L53.3333333333333 224C53.3333333333333 154.0053333333334 89.5016661333333 93.1766613333333 155.2083328 52.7499946666667C210.4829994666667 18.723328 284.16 0 362.6666666666667 0C409.3866666666667 0 457.2056746666666 6.9169919999999 500.875008 21.124992C491.0616746666667 39.9196586666667 483.4999893333334 60.0283306666668 478.166656 81.0416640000001C441.9639893333333 69.649664 401.856 64 362.6666666666667 64C244.5013333333333 64 117.3333333333333 114.0693333333334 117.3333333333333 224L117.3333333333333 256.4583253333334C117.3333333333333 267.7863253333334 124.4086656 277.3333333333334 132.7499989333333 277.3333333333334L500.7916586666666 277.3333333333334C513.0583253333333 300.8640000000001 528.6146773333332 322.3680000000001 546.8333226666666 341.3333333333334L132.7499989333333 341.3333333333334zM746.6666666666666 320C758.4426666666666 320 768 310.4426666666667 768 298.6666666666668L768 170.6666666666668L896 170.6666666666668C907.776 170.6666666666668 917.3333333333331 161.1093333333333 917.3333333333331 149.3333333333334C917.3333333333331 137.5573333333334 907.776 128 896 128L768 128L768 0C768 -11.776 758.4426666666666 -21.3333333333333 746.6666666666666 -21.3333333333333C734.8906666666667 -21.3333333333333 725.3333333333333 -11.776 725.3333333333333 0L725.3333333333333 128L597.3333333333333 128C585.5573333333333 128 576 137.5573333333334 576 149.3333333333334C576 161.1093333333333 585.5573333333333 170.6666666666668 597.3333333333333 170.6666666666668L725.3333333333333 170.6666666666668L725.3333333333333 298.6666666666668C725.3333333333333 310.4426666666667 734.8906666666667 320 746.6666666666666 320z"/>
            </font>
</defs>
</svg>
